<?xml version="1.0" encoding="UTF-8" standalone="no"?>
<!-- Created with Inkscape (http://www.inkscape.org/) -->

<svg
   xmlns:dc="http://purl.org/dc/elements/1.1/"
   xmlns:cc="http://creativecommons.org/ns#"
   xmlns:rdf="http://www.w3.org/1999/02/22-rdf-syntax-ns#"
   xmlns:svg="http://www.w3.org/2000/svg"
   xmlns="http://www.w3.org/2000/svg"
   xmlns:sodipodi="http://sodipodi.sourceforge.net/DTD/sodipodi-0.dtd"
   xmlns:inkscape="http://www.inkscape.org/namespaces/inkscape"
   id="svg2"
   version="1.1"
   inkscape:version="0.48.4 r9939"
   width="100"
   height="100"
   sodipodi:docname="facebook-1024-black.png">
  <metadata
     id="metadata8">
    <rdf:RDF>
      <cc:Work
         rdf:about="">
        <dc:format>image/svg+xml</dc:format>
        <dc:type
           rdf:resource="http://purl.org/dc/dcmitype/StillImage" />
        <dc:title></dc:title>
      </cc:Work>
    </rdf:RDF>
  </metadata>
  <defs
     id="defs6" />
  <sodipodi:namedview
     pagecolor="#ffffff"
     bordercolor="#666666"
     borderopacity="1"
     objecttolerance="10"
     gridtolerance="10"
     guidetolerance="10"
     inkscape:pageopacity="0"
     inkscape:pageshadow="2"
     inkscape:window-width="1920"
     inkscape:window-height="1137"
     id="namedview4"
     showgrid="false"
     fit-margin-top="0"
     fit-margin-left="0"
     fit-margin-right="0"
     fit-margin-bottom="0"
     inkscape:zoom="3.493042"
     inkscape:cx="-3.0031213"
     inkscape:cy="21.03404"
     inkscape:window-x="-8"
     inkscape:window-y="-8"
     inkscape:window-maximized="1"
     inkscape:current-layer="svg2" />
  <path
     style="fill:#006666;fill-opacity:1"
     d="M 21.178043,81.096979 C 20.511612,80.891795 19.824154,80.378575 19.411077,79.777853 18.692595,78.732994 18.745535,81.226625 18.773591,49.75027 l 0.02524,-28.314725 0.275773,-0.596717 c 0.345087,-0.746704 1.012272,-1.410731 1.775008,-1.766612 l 0.585938,-0.273389 28.314724,-0.02524 c 31.476356,-0.02806 28.982724,-0.081 30.027583,0.637487 0.291394,0.200372 0.676205,0.578272 0.855135,0.839777 0.669818,0.978931 0.620944,-1.488419 0.593254,29.949358 l -0.02507,28.46602 -0.318328,0.646609 c -0.37048,0.75254 -0.899901,1.269005 -1.671906,1.63099 l -0.548829,0.25734 -8.374023,0.02653 -8.374024,0.02653 0,-12.11149 0,-12.11149 4.044151,0 4.04415,0 0.05816,-0.366211 c 0.105378,-0.663524 1.130883,-8.689815 1.130883,-8.851047 0,-0.143005 -0.433377,-0.157742 -4.638672,-0.157742 l -4.638672,0 0,-3.551125 c 0,-1.965906 0.04382,-3.78594 0.09817,-4.077148 0.137961,-0.739224 0.626676,-1.686017 1.050699,-2.035532 1.005128,-0.828511 1.834599,-0.972888 5.614862,-0.97732 l 2.906311,-0.0034 -0.02545,-4.223633 -0.02545,-4.223632 -1.171875,-0.114579 c -1.974136,-0.193021 -6.8849,-0.275827 -8.007975,-0.135033 -2.784754,0.349112 -4.95579,1.326883 -6.722247,3.027509 -1.665522,1.603451 -2.661989,3.509665 -3.203587,6.128373 -0.203516,0.984029 -0.220675,1.360444 -0.256192,5.620097 l -0.03806,4.56543 -4.045147,0 -4.045146,0 0,4.6875 0,4.6875 4.052734,0 4.052734,0 0,12.109375 0,12.109375 -15.258789,-0.0068 C 23.960625,81.23743 21.561722,81.215103 21.178043,81.096974 z"
     id="path2987"
     inkscape:connector-curvature="0" />
</svg>
