<?xml version="1.0" encoding="UTF-8" standalone="no"?>
<!-- Created with Inkscape (http://www.inkscape.org/) -->

<svg
   xmlns:dc="http://purl.org/dc/elements/1.1/"
   xmlns:cc="http://creativecommons.org/ns#"
   xmlns:rdf="http://www.w3.org/1999/02/22-rdf-syntax-ns#"
   xmlns:svg="http://www.w3.org/2000/svg"
   xmlns="http://www.w3.org/2000/svg"
   xmlns:sodipodi="http://sodipodi.sourceforge.net/DTD/sodipodi-0.dtd"
   xmlns:inkscape="http://www.inkscape.org/namespaces/inkscape"
   id="svg2"
   version="1.1"
   inkscape:version="0.48.4 r9939"
   width="100"
   height="100"
   sodipodi:docname="linkedin-1024-black.png">
  <metadata
     id="metadata8">
    <rdf:RDF>
      <cc:Work
         rdf:about="">
        <dc:format>image/svg+xml</dc:format>
        <dc:type
           rdf:resource="http://purl.org/dc/dcmitype/StillImage" />
        <dc:title></dc:title>
      </cc:Work>
    </rdf:RDF>
  </metadata>
  <defs
     id="defs6" />
  <sodipodi:namedview
     pagecolor="#ffffff"
     bordercolor="#666666"
     borderopacity="1"
     objecttolerance="10"
     gridtolerance="10"
     guidetolerance="10"
     inkscape:pageopacity="0"
     inkscape:pageshadow="2"
     inkscape:window-width="1920"
     inkscape:window-height="1137"
     id="namedview4"
     showgrid="false"
     fit-margin-top="0"
     fit-margin-left="0"
     fit-margin-right="0"
     fit-margin-bottom="0"
     inkscape:zoom="5.367605"
     inkscape:cx="-18.052175"
     inkscape:cy="58.380018"
     inkscape:window-x="-8"
     inkscape:window-y="-8"
     inkscape:window-maximized="1"
     inkscape:current-layer="svg2" />
  <path
     style="fill:#006666;fill-opacity:1"
     d="m 19.53125,59.716796 0,-20.166015 6.689453,0 6.689453,0 0,20.166015 0,20.166016 -6.689453,0 -6.689453,0 0,-20.166016 z m 20.849609,6.84e-4 0,-20.166665 6.665039,-2.7e-5 6.665039,-7e-6 0.0054,2.856445 0.0054,2.856445 0.214302,-0.285387 c 0.117865,-0.156962 0.474405,-0.634873 0.792311,-1.062022 1.609323,-2.162343 3.84892,-3.788772 6.33341,-4.599415 3.038929,-0.991547 7.150763,-0.91504 10.331898,0.19224 4.859795,1.691584 8.110211,5.713086 9.320264,11.531281 0.485823,2.335939 0.473911,1.96605 0.509762,15.829748 l 0.03364,13.012696 -6.693147,0 -6.693145,0 0,-11.283146 c 0,-7.235095 -0.03689,-11.623367 -0.10283,-12.231445 -0.436109,-4.021781 -2.120421,-6.360116 -5.050823,-7.012069 -1.014136,-0.225624 -2.934729,-0.14823 -3.830722,0.154367 -1.937451,0.654319 -3.415453,1.986177 -4.390401,3.956277 -0.212639,0.429688 -0.441472,0.979004 -0.508516,1.220703 -0.09312,0.335684 -0.134431,3.356521 -0.174968,12.792969 l -0.05307,12.353516 -6.689454,0.02509 -6.689453,0.02509 0,-20.166664 z M 25.244141,34.022947 c -2.776831,-0.410421 -4.720302,-1.693208 -5.754628,-3.798338 -0.523479,-1.065417 -0.679372,-1.782504 -0.679372,-3.125 0,-1.334213 0.15338,-2.044837 0.6745,-3.125 0.831377,-1.723259 2.490908,-3.018091 4.587625,-3.579448 1.12038,-0.299961 3.371806,-0.299961 4.492187,0 2.38348,0.638132 4.111461,2.210443 4.899765,4.458354 0.255454,0.728448 0.273795,0.883554 0.271372,2.294922 -0.0024,1.38683 -0.02422,1.573696 -0.260639,2.229972 -0.3785,1.050697 -0.815168,1.730932 -1.64843,2.567903 -1.284057,1.289772 -3.061546,1.999439 -5.208724,2.079594 -0.594378,0.02219 -1.212524,0.02086 -1.373656,-0.003 z"
     id="path2987"
     inkscape:connector-curvature="0" />
</svg>
