<?xml version="1.0" encoding="UTF-8" standalone="no"?>
<!-- Created with Inkscape (http://www.inkscape.org/) -->

<svg
   xmlns:dc="http://purl.org/dc/elements/1.1/"
   xmlns:cc="http://creativecommons.org/ns#"
   xmlns:rdf="http://www.w3.org/1999/02/22-rdf-syntax-ns#"
   xmlns:svg="http://www.w3.org/2000/svg"
   xmlns="http://www.w3.org/2000/svg"
   xmlns:sodipodi="http://sodipodi.sourceforge.net/DTD/sodipodi-0.dtd"
   xmlns:inkscape="http://www.inkscape.org/namespaces/inkscape"
   id="svg2"
   version="1.1"
   inkscape:version="0.48.4 r9939"
   width="100"
   height="100"
   sodipodi:docname="twitter.svg">
  <metadata
     id="metadata8">
    <rdf:RDF>
      <cc:Work
         rdf:about="">
        <dc:format>image/svg+xml</dc:format>
        <dc:type
           rdf:resource="http://purl.org/dc/dcmitype/StillImage" />
        <dc:title></dc:title>
      </cc:Work>
    </rdf:RDF>
  </metadata>
  <defs
     id="defs6" />
  <sodipodi:namedview
     pagecolor="#ffffff"
     bordercolor="#666666"
     borderopacity="1"
     objecttolerance="10"
     gridtolerance="10"
     guidetolerance="10"
     inkscape:pageopacity="0"
     inkscape:pageshadow="2"
     inkscape:window-width="1920"
     inkscape:window-height="1137"
     id="namedview4"
     showgrid="false"
     inkscape:zoom="3.493042"
     inkscape:cx="73.534031"
     inkscape:cy="43.88165"
     inkscape:window-x="-8"
     inkscape:window-y="-8"
     inkscape:window-maximized="1"
     inkscape:current-layer="svg2"
     fit-margin-top="0"
     fit-margin-left="0"
     fit-margin-right="0"
     fit-margin-bottom="0" />
  <path
     style="fill:#006666;fill-opacity:1"
     d="m 35.351562,75.385552 c -4.6706,-0.404098 -9.306829,-1.71611 -13.405255,-3.793572 -1.37044,-0.694665 -3.241878,-1.763865 -3.175599,-1.814298 0.01547,-0.01177 0.445601,0.01951 0.955854,0.06951 1.187321,0.116342 4.245725,0.02519 5.547222,-0.16532 4.349992,-0.636755 8.651572,-2.40329 11.90946,-4.890872 l 0.422732,-0.322779 -0.565684,-0.05965 c -4.184417,-0.441256 -7.243994,-2.156304 -9.616922,-5.390774 -0.515534,-0.70271 -1.282104,-2.151717 -1.549521,-2.928978 l -0.187208,-0.544129 0.315859,0.05669 c 1.292438,0.23198 3.41516,0.166166 4.903315,-0.152025 l 0.485893,-0.103892 -1.136458,-0.363254 c -3.601538,-1.151183 -6.360884,-3.560592 -7.904746,-6.902275 -0.667958,-1.445793 -1.15782,-3.514256 -1.158705,-4.892684 l -3.91e-4,-0.611579 0.692927,0.348952 c 1.33082,0.670191 3.678617,1.277576 4.632434,1.198432 l 0.376699,-0.03126 -0.387264,-0.255143 c -0.212996,-0.14033 -0.750569,-0.596915 -1.194607,-1.014633 -4.010901,-3.773168 -5.152073,-9.801264 -2.79781,-14.779075 0.237267,-0.501671 0.468236,-0.897179 0.513266,-0.878906 0.04503,0.01827 0.404291,0.406761 0.798358,0.863304 0.394068,0.456543 1.242877,1.348849 1.886242,1.982901 5.334683,5.257462 12.056076,8.705009 19.45376,9.97825 1.499976,0.258166 4.107344,0.517397 4.206519,0.418221 0.03256,-0.03256 0.0011,-0.315366 -0.06992,-0.628463 -0.200492,-0.883974 -0.172934,-3.692436 0.04631,-4.719659 0.857449,-4.017394 3.338566,-7.230932 6.969469,-9.026846 0.961325,-0.475489 2.043862,-0.838563 3.264753,-1.094971 1.117455,-0.234685 3.525052,-0.236831 4.693063,-0.0042 2.465968,0.491177 4.747892,1.660925 6.525174,3.3449 l 0.53711,0.508912 1.269531,-0.322199 c 1.851069,-0.46979 3.404686,-1.052529 5.200195,-1.950519 0.872803,-0.436516 1.586914,-0.780892 1.586914,-0.76528 0,0.01561 -0.112002,0.32602 -0.248893,0.689794 -0.319264,0.848408 -0.894127,1.912572 -1.481079,2.741711 -0.631698,0.892349 -2.168386,2.421991 -3.046085,3.032119 -0.397829,0.276547 -0.65627,0.502814 -0.574316,0.502814 0.248463,0 1.831484,-0.287759 2.713654,-0.493283 0.96591,-0.225035 3.043531,-0.896529 3.78418,-1.223061 0.281983,-0.124318 0.512695,-0.194649 0.512695,-0.15629 0,0.03836 -0.361447,0.552298 -0.803216,1.142087 -1.005063,1.341819 -3.114607,3.511798 -4.422668,4.549369 l -0.995467,0.789617 -0.05757,2.212382 c -0.06193,2.379638 -0.213247,3.889548 -0.598526,5.972143 -1.654414,8.942808 -6.617007,17.20852 -13.588088,22.632365 -5.022735,3.907935 -10.938329,6.280158 -17.718059,7.105151 -1.553844,0.18908 -5.997157,0.271938 -7.519532,0.140223 z"
     id="path2987"
     inkscape:connector-curvature="0" />
</svg>
