<svg xmlns="http://www.w3.org/2000/svg" width="2007pt" height="856pt" viewBox="0 0 2007 856"><path d="M1587.395 36.887c0-20.114 16.304-36.422 36.418-36.422 20.11 0 36.417 16.308 36.417 36.422 0 20.117-16.308 36.425-36.418 36.425-20.113 0-36.417-16.308-36.417-36.425m0 782.043c0-20.117 16.304-36.426 36.418-36.426 20.11 0 36.417 16.308 36.417 36.426 0 20.113-16.308 36.422-36.418 36.422-20.113 0-36.417-16.31-36.417-36.422m86.94-733.164c0-20.118 16.294-36.422 36.42-36.422 20.112 0 36.417 16.304 36.417 36.422 0 20.117-16.305 36.42-36.418 36.42-20.125 0-36.418-16.303-36.418-36.42m-173.886 0c0-20.118 16.308-36.422 36.417-36.422 20.113 0 36.422 16.304 36.422 36.422 0 20.117-16.31 36.42-36.43 36.42-20.11 0-36.42-16.303-36.42-36.42m173.89 684.284c0-20.116 16.29-36.42 36.42-36.42 20.11 0 36.42 16.304 36.42 36.42 0 20.118-16.31 36.423-36.42 36.423-20.13 0-36.42-16.305-36.42-36.422m-173.89 0c0-20.11 16.3-36.42 36.41-36.42 20.11 0 36.42 16.31 36.42 36.42 0 20.12-16.31 36.43-36.43 36.43-20.11 0-36.42-16.3-36.42-36.42m86.94-635.4c0-20.12 16.3-36.42 36.42-36.42 20.11 0 36.42 16.31 36.42 36.43s-16.31 36.42-36.42 36.42c-20.12 0-36.42-16.3-36.42-36.42m173.88 0c0-20.11 16.29-36.42 36.42-36.42 20.11 0 36.42 16.31 36.42 36.42 0 20.12-16.31 36.42-36.42 36.42-20.12 0-36.42-16.3-36.42-36.42m-347.77 0c0-20.11 16.31-36.42 36.42-36.42 20.11 0 36.41 16.31 36.41 36.43s-16.31 36.42-36.42 36.42c-20.11 0-36.42-16.3-36.42-36.42m173.9 586.52c0-20.11 16.3-36.42 36.42-36.42 20.11 0 36.42 16.31 36.42 36.42 0 20.12-16.31 36.43-36.42 36.43-20.12 0-36.42-16.31-36.42-36.42m173.88 0c0-20.11 16.29-36.42 36.42-36.42 20.11 0 36.42 16.31 36.42 36.42 0 20.12-16.31 36.43-36.42 36.43-20.12 0-36.42-16.31-36.42-36.42m-347.77 0c0-20.11 16.31-36.42 36.42-36.42 20.11 0 36.41 16.31 36.41 36.42 0 20.12-16.31 36.43-36.42 36.43-20.11 0-36.42-16.31-36.42-36.42m260.83-537.65c0-20.11 16.29-36.42 36.41-36.42 20.11 0 36.42 16.31 36.42 36.42 0 20.12-16.3 36.43-36.41 36.43-20.12 0-36.42-16.31-36.42-36.43m173.87 0c0-20.11 16.31-36.42 36.44-36.42 20.11 0 36.42 16.31 36.42 36.42S1904.71 220 1884.6 220c-20.12 0-36.43-16.302-36.43-36.42m-347.76 0c0-20.114 16.31-36.422 36.42-36.422 20.11 0 36.42 16.31 36.42 36.425 0 20.12-16.31 36.43-36.426 36.43-20.11 0-36.42-16.31-36.42-36.427m-173.89 0c0-20.11 16.31-36.42 36.425-36.42 20.11 0 36.42 16.31 36.42 36.425 0 20.11-16.31 36.42-36.42 36.42-20.12 0-36.43-16.31-36.43-36.42m347.78 97.76c0-20.12 16.29-36.42 36.41-36.42 20.11 0 36.42 16.31 36.42 36.43s-16.31 36.42-36.42 36.42c-20.13 0-36.42-16.31-36.42-36.42m173.87 0c0-20.11 16.31-36.42 36.43-36.42 20.11 0 36.42 16.31 36.42 36.43s-16.31 36.42-36.42 36.42c-20.13 0-36.43-16.31-36.43-36.425m-347.76 0c0-20.12 16.31-36.42 36.41-36.42 20.11 0 36.42 16.307 36.42 36.424 0 20.11-16.31 36.42-36.42 36.42-20.11 0-36.42-16.31-36.42-36.426m-173.89 0c0-20.12 16.31-36.426 36.43-36.426 20.11 0 36.42 16.31 36.42 36.42 0 20.12-16.31 36.42-36.42 36.42-20.118 0-36.426-16.302-36.426-36.42m347.777 97.76c0-20.12 16.295-36.42 36.42-36.42 20.116 0 36.42 16.3 36.42 36.42s-16.304 36.42-36.42 36.42c-20.122 0-36.415-16.304-36.415-36.42m173.87 0c0-20.115 16.31-36.42 36.43-36.42 20.11 0 36.42 16.305 36.42 36.42s-16.31 36.424-36.42 36.424c-20.126 0-36.43-16.31-36.43-36.424m-347.76 0c0-20.12 16.31-36.42 36.414-36.42 20.11 0 36.42 16.3 36.42 36.42s-16.31 36.42-36.43 36.42c-20.11 0-36.42-16.31-36.42-36.424m-173.888 0c0-20.113 16.302-36.42 36.42-36.42 20.11 0 36.42 16.307 36.42 36.42 0 20.12-16.31 36.426-36.42 36.426-20.114 0-36.42-16.3-36.42-36.42m347.774 97.76c0-20.115 16.29-36.42 36.42-36.42 20.11 0 36.42 16.306 36.42 36.42s-16.31 36.425-36.42 36.425c-20.13 0-36.42-16.31-36.42-36.426m173.87 0c0-20.12 16.31-36.42 36.435-36.42 20.11 0 36.42 16.3 36.42 36.42s-16.31 36.42-36.42 36.42c-20.124 0-36.43-16.3-36.43-36.42m-347.76 0c0-20.12 16.306-36.42 36.415-36.42 20.11 0 36.42 16.302 36.42 36.42s-16.31 36.42-36.428 36.42c-20.11 0-36.42-16.3-36.42-36.42m-173.887 0c0-20.117 16.3-36.42 36.42-36.42 20.11 0 36.414 16.304 36.414 36.42s-16.31 36.42-36.42 36.42c-20.12 0-36.427-16.303-36.427-36.42m347.78 97.753c0-20.116 16.29-36.425 36.42-36.425 20.11 0 36.42 16.31 36.42 36.42 0 20.118-16.31 36.427-36.42 36.427-20.12 0-36.42-16.31-36.42-36.43m173.87 0c0-20.11 16.31-36.42 36.44-36.42 20.11 0 36.42 16.31 36.42 36.42 0 20.115-16.31 36.424-36.42 36.424-20.12 0-36.43-16.31-36.43-36.425m-347.76.004c0-20.12 16.306-36.43 36.415-36.43 20.11 0 36.42 16.31 36.42 36.42 0 20.12-16.31 36.43-36.42 36.43-20.11 0-36.42-16.31-36.42-36.43m-173.89 0c0-20.114 16.31-36.423 36.427-36.423 20.11 0 36.42 16.31 36.42 36.426s-16.31 36.42-36.42 36.42c-20.11 0-36.42-16.31-36.42-36.43m347.8 97.75c0-20.114 16.29-36.423 36.42-36.423 20.11 0 36.42 16.31 36.42 36.43s-16.3 36.427-36.41 36.427c-20.12 0-36.42-16.304-36.42-36.42m173.87 0c0-20.12 16.31-36.43 36.438-36.43 20.11 0 36.42 16.31 36.42 36.43s-16.31 36.42-36.42 36.42c-20.12 0-36.43-16.304-36.43-36.42m-347.76 0c0-20.115 16.31-36.424 36.42-36.424 20.11 0 36.42 16.31 36.42 36.43s-16.31 36.42-36.43 36.42c-20.11 0-36.42-16.308-36.42-36.425m-173.89 0c0-20.112 16.31-36.42 36.425-36.42 20.11 0 36.418 16.31 36.418 36.43s-16.31 36.43-36.42 36.43c-20.112 0-36.42-16.3-36.42-36.42m260.83-439.9c0-20.11 16.3-36.42 36.417-36.42 20.11 0 36.42 16.31 36.42 36.42 0 20.12-16.31 36.43-36.42 36.43-20.11 0-36.417-16.31-36.417-36.43m173.88 0c0-20.11 16.3-36.42 36.42-36.42 20.112 0 36.42 16.31 36.42 36.42 0 20.12-16.31 36.427-36.426 36.427-20.12 0-36.42-16.31-36.42-36.42m173.87 0c0-20.112 16.31-36.42 36.44-36.42 20.11 0 36.42 16.308 36.42 36.42 0 20.12-16.31 36.427-36.42 36.427-20.13 0-36.438-16.31-36.438-36.43m-521.64 0c0-20.12 16.31-36.42 36.42-36.42 20.11 0 36.416 16.3 36.416 36.42 0 20.11-16.3 36.42-36.41 36.42-20.11 0-36.42-16.31-36.42-36.424m-173.89 0c0-20.117 16.31-36.42 36.42-36.42 20.115 0 36.424 16.303 36.424 36.42 0 20.114-16.31 36.42-36.423 36.42s-36.422-16.31-36.422-36.42m347.78 97.75c0-20.12 16.306-36.42 36.42-36.42 20.11 0 36.42 16.3 36.42 36.42s-16.31 36.42-36.42 36.42c-20.112 0-36.42-16.31-36.42-36.42m173.88 0c0-20.12 16.3-36.42 36.42-36.42 20.117 0 36.425 16.3 36.425 36.42s-16.31 36.42-36.43 36.42-36.42-16.31-36.42-36.43m173.87 0c0-20.12 16.31-36.42 36.433-36.42 20.11 0 36.413 16.3 36.413 36.42s-16.305 36.425-36.42 36.425c-20.124 0-36.433-16.31-36.433-36.426m-521.64 0c0-20.12 16.31-36.42 36.42-36.42 20.113 0 36.42 16.3 36.42 36.42s-16.306 36.42-36.42 36.42c-20.11 0-36.42-16.31-36.42-36.43m-173.89 0c0-20.12 16.31-36.42 36.42-36.42 20.12 0 36.43 16.3 36.43 36.42s-16.31 36.43-36.425 36.43-36.43-16.31-36.43-36.43m347.78 97.76c0-20.12 16.303-36.42 36.42-36.42 20.11 0 36.42 16.31 36.42 36.42 0 20.11-16.307 36.42-36.417 36.42s-36.42-16.31-36.42-36.428m173.88 0c0-20.118 16.3-36.427 36.42-36.427 20.11 0 36.42 16.31 36.42 36.42s-16.31 36.426-36.425 36.426c-20.12 0-36.42-16.31-36.42-36.43m173.87 0c0-20.12 16.31-36.42 36.43-36.42 20.11 0 36.42 16.31 36.42 36.42 0 20.11-16.31 36.42-36.42 36.42-20.13 0-36.43-16.31-36.43-36.427m-521.64 0c0-20.112 16.31-36.42 36.42-36.42 20.11 0 36.41 16.31 36.41 36.427s-16.304 36.425-36.42 36.425c-20.11 0-36.42-16.31-36.42-36.43m-173.89 0c0-20.114 16.31-36.423 36.42-36.423 20.12 0 36.427 16.31 36.427 36.42 0 20.12-16.31 36.43-36.43 36.43s-36.43-16.31-36.43-36.42m347.78 97.76c0-20.12 16.31-36.43 36.42-36.43 20.11 0 36.42 16.31 36.42 36.422 0 20.11-16.3 36.42-36.41 36.42s-36.415-16.31-36.415-36.42m173.88 0c0-20.12 16.295-36.423 36.416-36.423 20.12 0 36.427 16.31 36.427 36.424 0 20.11-16.31 36.42-36.43 36.42s-36.42-16.31-36.42-36.42m173.87 0c0-20.12 16.31-36.43 36.43-36.43 20.118 0 36.42 16.31 36.42 36.423 0 20.11-16.302 36.42-36.42 36.42-20.12 0-36.43-16.31-36.43-36.42m-695.53 0c0-20.12 16.31-36.43 36.42-36.43 20.12 0 36.428 16.31 36.428 36.427s-16.31 36.42-36.43 36.42-36.427-16.31-36.427-36.42m347.78 97.758c0-20.116 16.31-36.42 36.42-36.42 20.11 0 36.42 16.305 36.42 36.42s-16.3 36.42-36.41 36.42c-20.116 0-36.42-16.31-36.42-36.43m173.88 0c0-20.12 16.297-36.42 36.418-36.42 20.12 0 36.428 16.3 36.428 36.42s-16.31 36.42-36.426 36.42c-20.12 0-36.416-16.31-36.416-36.43m173.87 0c0-20.11 16.31-36.42 36.43-36.42 20.114 0 36.42 16.31 36.42 36.43s-16.306 36.424-36.42 36.424c-20.124 0-36.43-16.31-36.43-36.42m-521.64 0c0-20.12 16.31-36.42 36.42-36.42 20.114 0 36.42 16.302 36.42 36.42s-16.306 36.43-36.42 36.43c-20.11 0-36.417-16.31-36.417-36.43m-173.89 0c0-20.12 16.31-36.42 36.42-36.42 20.113 0 36.422 16.302 36.422 36.42s-16.31 36.423-36.43 36.423c-20.11 0-36.42-16.31-36.42-36.43" fill="rgb(78.431702%,78.039551%,78.137207%)"/><path d="M210.574 538.816H35.867v-97.75H194.05V404.14H35.868v-88.085H206.28v-35.528H0v293.817h210.574v-35.528m338.328 35.528V280.527h-52.246s-11.847 29.703-13.027 33.25c-42.2 127.02-70.43 211.91-70.43 211.91h-.83s-28.36-84.89-70.78-211.91c-1.2-3.574-13.09-33.25-13.09-33.25h-52.66v293.817h36.05V400.586c0-8.68-.83-43.41-.83-70.68h.83l80.64 244.438h39.66l80.65-244.848h.83c0 27.68-.83 244.848-.83 244.848h36.05" fill="rgb(13.729858%,12.159729%,12.548828%)"/><path d="M655.086 313.418h74.105c44.62 0 62.96 15.695 62.96 43.375 0 36.355-24.95 46.52-63.37 46.52h-73.69zM619.22 574.344h124.84c65.688 0 96.594-38.672 96.594-86.184 0-50.812-30.082-64.44-49.5-72.29 32.637-15.284 35.457-42.554 35.457-61.968 0-40.484-24.3-73.375-79.65-73.375H619.22zm35.866-136.996h80.305c32.64 0 70.8 8.265 70.8 49.988 0 33.05-22.46 54.125-64.19 54.125h-86.91V437.35" fill-rule="evenodd" fill="rgb(13.729858%,12.159729%,12.548828%)"/><path d="M937.727 280.527H899.06v293.817h193.182v-36.926H937.727v-256.89m475.78 245.136c0-20.117 16.31-36.426 36.42-36.426 20.112 0 36.417 16.31 36.417 36.426 0 20.113-16.305 36.422-36.418 36.422-20.11 0-36.418-16.31-36.418-36.422" fill="rgb(13.729858%,12.159729%,12.548828%)"/></svg>