<svg xmlns="http://www.w3.org/2000/svg" width="550.117" height="539.707" viewBox="0 0 550.117 539.707"><path fill="#E01E32" d="M145.2 114.432c0-7.983 6.47-14.455 14.456-14.455 7.982 0 14.455 6.472 14.455 14.455 0 7.985-6.47 14.458-14.45 14.458-7.98 0-14.45-6.473-14.45-14.458z"/><path fill="#64AF55" d="M185.3 504c0-7.988 6.472-14.457 14.457-14.457 7.983 0 14.456 6.47 14.456 14.456 0 7.98-6.473 14.45-14.456 14.45-7.985 0-14.457-6.47-14.457-14.46zm0 0c0-7.988 6.472-14.457 14.457-14.457 7.983 0 14.456 6.47 14.456 14.456 0 7.98-6.473 14.45-14.456 14.45-7.985 0-14.457-6.47-14.457-14.46z"/><path fill="#DD3E59" d="M234.263 159.454c0-7.982 6.473-14.455 14.456-14.455s14.45 6.47 14.45 14.45c0 7.98-6.47 14.45-14.46 14.45-7.99 0-14.46-6.47-14.46-14.46z"/><path fill="#B3D334" d="M96.238 164.876c0-7.983 6.47-14.455 14.456-14.455s14.455 6.48 14.455 14.46c0 7.99-6.47 14.46-14.46 14.46s-14.46-6.47-14.46-14.46z"/><path fill="#64AF55" d="M219.806 484.598c0-7.984 6.47-14.458 14.457-14.458 7.984 0 14.456 6.474 14.456 14.458 0 7.985-6.48 14.454-14.46 14.454-7.99 0-14.46-6.47-14.46-14.454zm-69.012 0c0-7.984 6.47-14.458 14.456-14.458 7.984 0 14.456 6.474 14.456 14.458 0 7.985-6.472 14.454-14.456 14.454-7.985 0-14.456-6.47-14.456-14.454z"/><path fill="#FAA21B" d="M302.44 164.876c0-10.978 8.718-19.878 19.468-19.878 10.752 0 19.475 8.9 19.475 19.878 0 10.98-8.723 19.878-19.475 19.878-10.75 0-19.467-8.898-19.467-19.878zm-16.363 19.044c0-7.985 6.472-14.458 14.457-14.458 7.986 0 14.455 6.473 14.455 14.457 0 7.98-6.47 14.45-14.46 14.45s-14.46-6.47-14.46-14.46zm-172.68 38.978c0-9.58 7.765-17.346 17.347-17.346 9.58 0 17.346 7.767 17.346 17.346 0 9.582-7.767 17.35-17.346 17.35-9.582 0-17.346-7.768-17.346-17.35z"/><path fill="#64AF55" d="M185.3 465.2c0-7.984 6.472-14.457 14.457-14.457 7.983 0 14.456 6.473 14.456 14.456s-6.473 14.45-14.456 14.45c-7.985 0-14.457-6.47-14.457-14.46z"/><path fill="#607DA8" d="M254.312 465.2c0-7.984 6.472-14.457 14.458-14.457 7.983 0 14.456 6.473 14.456 14.456s-6.473 14.45-14.456 14.45c-7.986 0-14.458-6.47-14.458-14.46z"/><path fill="#64AF55" d="M116.288 465.2c0-7.984 6.47-14.457 14.456-14.457 7.984 0 14.457 6.473 14.457 14.456s-6.47 14.45-14.45 14.45-14.45-6.47-14.45-14.46z"/><path fill="#54C3C0" d="M248.72 193.248c0-7.982 6.472-14.455 14.455-14.455 7.984 0 14.456 6.473 14.456 14.455 0 7.985-6.47 14.456-14.45 14.456s-14.45-6.47-14.45-14.456z"/><path fill="#6C58A6" d="M259.908 128.888c0-7.984 6.472-14.457 14.454-14.457 7.986 0 14.456 6.48 14.456 14.46 0 7.99-6.47 14.46-14.456 14.46-7.983 0-14.454-6.47-14.454-14.45z"/><path fill="#4F84C5" d="M150.794 251.812c0-7.984 6.47-14.456 14.456-14.456 7.984 0 14.456 6.472 14.456 14.456 0 7.983-6.472 14.454-14.456 14.454-7.985 0-14.456-6.47-14.456-14.454z"/><path fill="#64AF55" d="M81.782 251.812c0-7.984 6.47-14.456 14.456-14.456 7.984 0 14.456 6.472 14.456 14.456 0 7.983-6.472 14.454-14.456 14.454-7.985 0-14.456-6.47-14.456-14.454z"/><path fill="#E01E32" d="M219.806 251.812c0-7.984 6.47-14.456 14.457-14.456 7.984 0 14.456 6.472 14.456 14.456 0 7.983-6.48 14.456-14.46 14.456-7.99 0-14.46-6.473-14.46-14.456z"/><path fill="#64AF55" d="M288.818 227.47c0-7.986 6.474-14.46 14.456-14.46 7.982 0 14.457 6.474 14.457 14.46 0 7.983-6.47 14.456-14.45 14.456s-14.45-6.472-14.45-14.456z"/><path fill="#FAA21B" d="M150.794 290.608c0-7.984 6.47-14.454 14.456-14.454 7.984 0 14.456 6.47 14.456 14.454 0 7.983-6.472 14.46-14.456 14.46-7.985 0-14.456-6.477-14.456-14.46z"/><path fill="#64AF55" d="M81.782 290.608c0-7.984 6.47-14.454 14.456-14.454 7.984 0 14.456 6.47 14.456 14.454 0 7.983-6.472 14.46-14.456 14.46-7.985 0-14.456-6.477-14.456-14.46zm138.024 38.8c0-7.986 6.47-14.456 14.457-14.456 7.984 0 14.456 6.47 14.456 14.456 0 7.984-6.48 14.456-14.46 14.456-7.99 0-14.46-6.472-14.46-14.456z"/><path fill="#8C52A1" d="M288.818 329.408c0-7.986 6.474-14.456 14.456-14.456 7.982 0 14.457 6.47 14.457 14.456 0 7.984-6.47 14.456-14.45 14.456s-14.45-6.472-14.45-14.456z"/><path fill="#64AF55" d="M150.794 329.408c0-7.986 6.47-14.456 14.456-14.456 7.984 0 14.456 6.47 14.456 14.456 0 7.984-6.472 14.456-14.456 14.456-7.985 0-14.456-6.472-14.456-14.456zm-69.012 0c0-7.986 6.47-14.456 14.456-14.456 7.984 0 14.456 6.47 14.456 14.456 0 7.984-6.472 14.456-14.456 14.456-7.985 0-14.456-6.472-14.456-14.456zm138.024 38.796c0-7.98 6.47-14.456 14.457-14.456 7.984 0 14.456 6.475 14.456 14.456 0 7.984-6.48 14.456-14.46 14.456-7.99 0-14.46-6.472-14.46-14.456z"/><path fill="#54C3C0" d="M245.92 314.952c0-9.315 7.727-16.865 17.255-16.865 9.526 0 17.253 7.55 17.253 16.865 0 9.312-7.727 16.863-17.253 16.863-9.528 0-17.255-7.552-17.255-16.863z"/><path fill="#64AF55" d="M150.794 368.204c0-7.98 6.47-14.456 14.456-14.456 7.984 0 14.456 6.475 14.456 14.456 0 7.984-6.472 14.456-14.456 14.456-7.985 0-14.456-6.472-14.456-14.456zm-69.012 0c0-7.98 6.47-14.456 14.456-14.456 7.984 0 14.456 6.475 14.456 14.456 0 7.984-6.472 14.456-14.456 14.456-7.985 0-14.456-6.472-14.456-14.456z"/><path fill="#FAA21B" d="M219.806 407.003c0-7.985 6.47-14.458 14.457-14.458 7.984 0 14.456 6.473 14.456 14.458 0 7.982-6.48 14.457-14.46 14.457-7.99 0-14.46-6.474-14.46-14.457z"/><path fill="#FFCA36" d="M408.74 405.325c0-14.37 11.65-26.02 26.02-26.02s26.023 11.648 26.023 26.02c0 14.37-11.654 26.02-26.023 26.02s-26.02-11.65-26.02-26.02z"/><path fill="#64AF55" d="M150.794 407.003c0-7.985 6.47-14.458 14.456-14.458 7.984 0 14.456 6.473 14.456 14.458 0 7.982-6.472 14.457-14.456 14.457-7.985 0-14.456-6.474-14.456-14.457zm-69.012 0c0-7.985 6.47-14.458 14.456-14.458 7.984 0 14.456 6.473 14.456 14.458 0 7.982-6.472 14.457-14.456 14.457-7.985 0-14.456-6.474-14.456-14.457zM219.806 445.8c0-7.984 6.47-14.454 14.457-14.454 7.984 0 14.456 6.47 14.456 14.454 0 7.983-6.48 14.456-14.46 14.456-7.99 0-14.46-6.472-14.46-14.456zm67.344 5.852c0-7.988 6.473-14.456 14.456-14.456 7.98 0 14.455 6.468 14.455 14.456 0 7.98-7.3 14.456-15.29 14.456-7.98 0-13.61-6.475-13.61-14.456zM150.794 445.8c0-7.984 6.47-14.454 14.456-14.454 7.984 0 14.456 6.47 14.456 14.454 0 7.983-6.472 14.456-14.456 14.456-7.985 0-14.456-6.472-14.456-14.456zm-69.012 0c0-7.984 6.47-14.454 14.456-14.454 7.984 0 14.456 6.47 14.456 14.454 0 7.983-6.472 14.456-14.456 14.456-7.985 0-14.456-6.472-14.456-14.456z"/><path fill="#5453A4" d="M178.616 275.39c0-7.985 6.47-14.457 14.457-14.457 7.982 0 14.453 6.472 14.453 14.456 0 7.98-6.47 14.45-14.453 14.45-7.987 0-14.457-6.47-14.457-14.46zm133.854-4.18c0-7.983 6.47-14.456 14.456-14.456 7.982 0 14.457 6.473 14.457 14.456 0 7.986-6.475 14.454-14.457 14.454-7.987 0-14.455-6.467-14.455-14.454z"/><path fill="#D4D832" d="M384.033 169.462c0-9.045 7.514-16.378 16.785-16.378s16.793 7.333 16.793 16.378c0 9.046-7.52 16.378-16.79 16.378s-16.78-7.332-16.78-16.378z"/><path fill="#C95843" d="M116.288 271.21c0-7.983 6.47-14.456 14.456-14.456 7.984 0 14.457 6.473 14.457 14.456 0 7.986-6.47 14.454-14.45 14.454s-14.45-6.467-14.45-14.454z"/><path fill="#64AF55" d="M47.274 271.21c0-7.983 6.472-14.456 14.457-14.456s14.46 6.473 14.46 14.456c0 7.986-6.47 14.454-14.45 14.454s-14.46-6.467-14.46-14.454zM185.3 310.007c0-7.984 6.472-14.457 14.457-14.457 7.983 0 14.456 6.473 14.456 14.457 0 7.985-6.473 14.457-14.456 14.457-7.985 0-14.457-6.47-14.457-14.457z"/><path fill="#E9345F" d="M379.344 407.003c0-7.985 6.47-14.458 14.45-14.458 7.99 0 14.458 6.473 14.458 14.458 0 7.982-6.47 14.453-14.457 14.453-7.983 0-14.45-6.47-14.45-14.453z"/><path fill="#BE4C89" d="M425.06 334.35c0-7.983 6.468-14.455 14.456-14.455 7.98 0 14.455 6.472 14.455 14.456 0 7.99-6.47 14.46-14.45 14.46-7.99 0-14.45-6.47-14.45-14.45z"/><path fill="#64AF55" d="M116.288 310.007c0-7.984 6.47-14.457 14.456-14.457 7.984 0 14.457 6.473 14.457 14.457 0 7.985-6.47 14.457-14.45 14.457s-14.45-6.47-14.45-14.457zm-69.014 0c0-7.984 6.472-14.457 14.457-14.457s14.46 6.473 14.46 14.457c0 7.985-6.47 14.457-14.45 14.457s-14.45-6.47-14.45-14.457z"/><path fill="#B64C3E" d="M185.3 348.807c0-7.984 6.472-14.456 14.457-14.456 7.983 0 14.456 6.48 14.456 14.46s-6.473 14.46-14.456 14.46c-7.985 0-14.457-6.47-14.457-14.45z"/><path fill="#5453A4" d="M254.312 348.807c0-7.984 6.472-14.456 14.458-14.456 7.983 0 14.456 6.48 14.456 14.46s-6.473 14.46-14.456 14.46c-7.986 0-14.458-6.47-14.458-14.45z"/><path fill="#A05F81" d="M288.818 368.204c0-7.98 6.474-14.454 14.456-14.454 7.982 0 14.457 6.473 14.457 14.454 0 7.984-6.47 14.456-14.45 14.456s-14.45-6.472-14.45-14.456z"/><path fill="#64AF55" d="M116.288 348.807c0-7.984 6.47-14.456 14.456-14.456 7.984 0 14.457 6.48 14.457 14.46s-6.47 14.46-14.45 14.46-14.45-6.47-14.45-14.45zm-69.014 0c0-7.984 6.472-14.456 14.457-14.456s14.46 6.48 14.46 14.46-6.47 14.46-14.45 14.46-14.45-6.47-14.45-14.45z"/><path fill="#E11A2C" d="M185.3 387.603c0-7.984 6.472-14.456 14.457-14.456 7.983 0 14.456 6.472 14.456 14.456 0 7.985-6.473 14.454-14.456 14.454-7.985 0-14.457-6.47-14.457-14.454z"/><path fill="#B3D334" d="M254.312 387.603c0-7.984 6.472-14.456 14.458-14.456 7.983 0 14.456 6.472 14.456 14.456 0 7.985-6.473 14.454-14.456 14.454-7.986 0-14.458-6.47-14.458-14.454z"/><path fill="#FCB34C" d="M332.16 373.15c0-8.782 7.117-15.904 15.898-15.904s15.904 7.122 15.904 15.903c0 8.78-7.123 15.89-15.904 15.89s-15.898-7.12-15.898-15.9z"/><path fill="#E11A2C" d="M116.288 387.603c0-7.984 6.47-14.456 14.456-14.456 7.984 0 14.457 6.472 14.457 14.456 0 7.985-6.47 14.454-14.45 14.454s-14.45-6.47-14.45-14.454z"/><path fill="#64AF55" d="M47.274 387.603c0-7.984 6.472-14.456 14.457-14.456s14.46 6.472 14.46 14.456c0 7.985-6.47 14.454-14.45 14.454s-14.45-6.47-14.45-14.454zM185.3 426.4c0-7.98 6.472-14.453 14.457-14.453 7.983 0 14.456 6.472 14.456 14.454 0 7.99-6.473 14.46-14.456 14.46-7.985 0-14.457-6.47-14.457-14.45zm69.012-5.85c0-7.98 6.472-14.455 14.458-14.455 7.983 0 14.456 6.474 14.456 14.456s-6.473 14.46-14.456 14.46c-7.986 0-14.458-6.47-14.458-14.45z"/><path fill="#E65748" d="M323.324 442.28c0-7.985 6.475-14.453 14.457-14.453 7.98 0 14.46 6.468 14.46 14.452s-6.47 14.45-14.45 14.45-14.45-6.48-14.45-14.46z"/><path fill="#64AF55" d="M116.288 426.4c0-7.98 6.47-14.453 14.456-14.453 7.984 0 14.457 6.472 14.457 14.454 0 7.99-6.47 14.46-14.45 14.46s-14.45-6.47-14.45-14.45zm-69.014 0c0-7.98 6.472-14.453 14.457-14.453s14.46 6.473 14.46 14.453c0 7.986-6.47 14.458-14.45 14.458s-14.45-6.472-14.45-14.456z"/><path fill="#FAA21B" d="M376.973 353.748c0-7.98 6.47-14.454 14.455-14.454 7.982 0 14.457 6.473 14.457 14.454 0 7.984-6.475 14.456-14.457 14.456-7.987 0-14.455-6.472-14.455-14.456z"/><path fill="#DD3E59" d="M339.387 305.064c0-10.378 8.41-18.792 18.79-18.792 10.378 0 18.796 8.414 18.796 18.792 0 10.38-8.418 18.794-18.795 18.794-10.38 0-18.79-8.414-18.79-18.794z"/><path fill="#FFCA36" d="M262.917 251.812c0-7.984 6.472-14.456 14.456-14.456 7.98 0 14.456 6.472 14.456 14.456 0 7.98-6.48 14.454-14.46 14.454-7.99 0-14.46-6.473-14.46-14.454z"/><path fill="#A1CD3A" d="M225.4 91.37c0-7.983 6.474-14.454 14.456-14.454 7.985 0 14.456 6.47 14.456 14.453s-6.47 14.45-14.456 14.45c-7.982 0-14.455-6.47-14.455-14.46z"/><path fill="#FFCA36" d="M185.3 193.248c0-7.982 6.472-14.455 14.457-14.455 7.98 0 14.456 6.473 14.456 14.455 0 7.985-6.476 14.456-14.456 14.456-7.985 0-14.457-6.47-14.457-14.456z"/><path fill="#AAD04D" d="M379.826 251.81c0-15.97 12.945-28.912 28.908-28.912 15.97 0 28.918 12.943 28.918 28.912 0 15.968-12.947 28.912-28.918 28.912-15.963 0-28.908-12.944-28.908-28.912z"/><path fill="#BE4C89" d="M410.604 324.464c0-7.987 6.467-14.457 14.455-14.457 7.98 0 14.45 6.47 14.45 14.457 0 7.982-6.48 14.457-14.46 14.457-7.99 0-14.46-6.47-14.46-14.45z"/><path fill="#FFCA36" d="M219.806 290.608c0-7.984 6.47-14.454 14.457-14.454 7.982 0 14.456 6.47 14.456 14.454 0 7.983-6.48 14.456-14.46 14.456-7.99 0-14.46-6.473-14.46-14.456z"/><path fill="#6255A4" d="M364.887 241.926c0-7.986 6.47-14.456 14.453-14.456 7.984 0 14.46 6.47 14.46 14.456 0 7.98-6.476 14.456-14.46 14.456-7.983 0-14.453-6.474-14.453-14.456z"/><path fill="#6DCBD4" d="M350.43 213.01c0-7.98 6.47-14.453 14.45-14.453 7.99 0 14.464 6.473 14.464 14.454 0 7.99-6.475 14.46-14.463 14.46-7.98 0-14.45-6.47-14.45-14.46z"/><path fill="#54C3C0" d="M464.586 387.603c0-7.984 6.47-14.456 14.457-14.456 7.982 0 14.455 6.472 14.455 14.456 0 7.982-6.473 14.454-14.455 14.454-7.986 0-14.457-6.472-14.457-14.454z"/><path fill="#E65748" d="M317.703 99.977c0-7.984 6.47-14.456 14.453-14.456 7.984 0 14.46 6.48 14.46 14.46s-6.476 14.46-14.46 14.46c-7.982 0-14.453-6.47-14.453-14.45z"/><path fill="#BF507F" d="M399.736 193.248c0-7.982 6.475-14.455 14.457-14.455s14.455 6.473 14.455 14.455c0 7.985-6.473 14.456-14.455 14.456s-14.457-6.47-14.457-14.456z"/><path fill="#50BE9D" d="M268.77 66.548c0-7.985 6.472-14.457 14.456-14.457 7.983 0 14.456 6.48 14.456 14.46s-6.473 14.46-14.456 14.46c-7.984 0-14.456-6.47-14.456-14.45z"/><path fill="#64AF55" d="M353.32 144.998c0-11.176 9.06-20.237 20.24-20.237 11.174 0 20.24 9.07 20.24 20.24 0 11.18-9.066 20.24-20.24 20.24-11.18 0-20.24-9.06-20.24-20.24z"/><path fill="#AAD04D" d="M376.973 85.52c0-9.137 7.11-16.545 15.88-16.545s15.888 7.41 15.888 16.546c0 9.14-7.11 16.55-15.88 16.55s-15.88-7.41-15.88-16.54zm94.882 326.423c0-7.982 6.475-14.454 14.457-14.454 7.988 0 14.455 6.47 14.455 14.45 0 7.98-6.467 14.46-14.455 14.46-7.982 0-14.457-6.47-14.457-14.46z"/><path fill="#5CC1A0" d="M450.13 237.356c0-7.986 6.47-14.458 14.456-14.458 7.982 0 14.457 6.472 14.457 14.458 0 7.98-6.475 14.456-14.457 14.456-7.986 0-14.455-6.475-14.455-14.456z"/><path fill="#F6A92B" d="M471.855 237.356c0-7.986 6.475-14.458 14.457-14.458 7.988 0 14.455 6.472 14.455 14.458 0 7.98-6.467 14.456-14.455 14.456-7.982 0-14.457-6.475-14.457-14.456z"/><path fill="#DC1E32" d="M500.768 339.293c0-7.983 6.477-14.456 14.46-14.456 7.98 0 14.454 6.473 14.454 14.456 0 7.984-6.475 14.454-14.455 14.454-7.983 0-14.46-6.47-14.46-14.454z"/><path fill="#65CBE0" d="M113.398 52.09c0-13.41 10.87-24.284 24.284-24.284S161.97 38.68 161.97 52.09c0 13.415-10.875 24.287-24.288 24.287s-24.284-10.872-24.284-24.286z"/><path fill="#EDE811" d="M464.586 465.2c0-7.984 6.47-14.457 14.457-14.457 7.982 0 14.455 6.473 14.455 14.456 0 7.98-6.473 14.45-14.455 14.45-7.986 0-14.457-6.48-14.457-14.46z"/><path fill="#7E61AA" d="M185.3 37.635c0-7.983 6.472-14.455 14.457-14.455 7.98 0 14.456 6.472 14.456 14.455 0 7.985-6.476 14.456-14.456 14.456-7.985 0-14.457-6.47-14.457-14.45z"/><path fill="#64AF55" d="M185.3 143.344c0-7.985 6.472-14.456 14.457-14.456 7.98 0 14.456 6.47 14.456 14.456 0 7.982-6.476 14.456-14.456 14.456-7.985 0-14.457-6.473-14.457-14.456z"/><path fill="#7E61AA" d="M373.56 445.8c0-7.984 6.47-14.454 14.45-14.454 7.988 0 14.463 6.47 14.463 14.454 0 7.983-6.475 14.456-14.463 14.456-7.98 0-14.45-6.472-14.45-14.456z"/><path fill="#EDE811" d="M426.303 68.974c0-13.705 10.666-24.815 23.822-24.815 13.16 0 23.83 11.11 23.83 24.81s-10.67 24.82-23.83 24.82c-13.156 0-23.822-11.12-23.822-24.82z"/><path fill="#DC1E32" d="M415.967 503.996c0-11.975 9.713-21.682 21.682-21.682 11.97 0 21.68 9.707 21.68 21.682 0 11.976-9.72 21.685-21.69 21.685s-21.69-9.71-21.69-21.68z"/><path fill="#4F84C5" d="M486.312 150.42c0-7.982 6.475-14.454 14.455-14.454 7.982 0 14.46 6.472 14.46 14.454 0 7.983-6.478 14.456-14.46 14.456-7.98 0-14.455-6.472-14.455-14.456z"/><path fill="#64AF55" d="M408.953 484.596c0-9.58 7.77-17.346 17.35-17.346 9.578 0 17.348 7.765 17.348 17.346 0 9.582-7.77 17.35-17.34 17.35-9.58 0-17.35-7.768-17.35-17.35z"/></svg>