<?xml version="1.0" encoding="utf-8"?>
<!-- Generator: Adobe Illustrator 16.0.4, SVG Export Plug-In . SVG Version: 6.00 Build 0)  -->
<!DOCTYPE svg PUBLIC "-//W3C//DTD SVG 1.1//EN" "http://www.w3.org/Graphics/SVG/1.1/DTD/svg11.dtd">
<svg version="1.1" id="Layer_1" xmlns="http://www.w3.org/2000/svg" xmlns:xlink="http://www.w3.org/1999/xlink" x="0px" y="0px"
	 width="550.117px" height="539.707px" viewBox="0 0 550.117 539.707" enable-background="new 0 0 550.117 539.707"
	 xml:space="preserve">
<g>
	<path fill="#E01E32" d="M145.2,114.432c0-7.983,6.47-14.455,14.456-14.455c7.982,0,14.455,6.472,14.455,14.455
		c0,7.985-6.473,14.458-14.455,14.458C151.669,128.889,145.2,122.417,145.2,114.432L145.2,114.432z"/>
	<path fill="#64AF55" d="M185.3,503.999c0-7.987,6.472-14.456,14.457-14.456c7.983,0,14.456,6.469,14.456,14.456
		c0,7.982-6.473,14.454-14.456,14.454C191.772,518.453,185.3,511.981,185.3,503.999L185.3,503.999z"/>
	<path fill="#64AF55" d="M185.3,503.999c0-7.987,6.472-14.456,14.457-14.456c7.983,0,14.456,6.469,14.456,14.456
		c0,7.982-6.473,14.454-14.456,14.454C191.772,518.453,185.3,511.981,185.3,503.999L185.3,503.999z"/>
	<path fill="#DD3E59" d="M234.263,159.454c0-7.982,6.473-14.455,14.456-14.455c7.984,0,14.456,6.473,14.456,14.455
		c0,7.985-6.472,14.457-14.456,14.457C240.736,173.911,234.263,167.439,234.263,159.454L234.263,159.454z"/>
	<path fill="#B3D334" d="M96.238,164.876c0-7.983,6.471-14.455,14.456-14.455s14.455,6.472,14.455,14.455
		c0,7.984-6.47,14.457-14.455,14.457S96.238,172.861,96.238,164.876L96.238,164.876z"/>
	<path fill="#64AF55" d="M219.806,484.598c0-7.984,6.471-14.458,14.457-14.458c7.984,0,14.456,6.474,14.456,14.458
		c0,7.985-6.472,14.454-14.456,14.454C226.277,499.052,219.806,492.583,219.806,484.598L219.806,484.598z"/>
	<path fill="#64AF55" d="M150.794,484.598c0-7.984,6.471-14.458,14.456-14.458c7.984,0,14.456,6.474,14.456,14.458
		c0,7.985-6.472,14.454-14.456,14.454C157.265,499.052,150.794,492.583,150.794,484.598L150.794,484.598z"/>
	<path fill="#FAA21B" d="M302.441,164.876c0-10.978,8.717-19.878,19.467-19.878c10.752,0,19.475,8.9,19.475,19.878
		c0,10.979-8.723,19.878-19.475,19.878C311.158,184.754,302.441,175.856,302.441,164.876L302.441,164.876z"/>
	<path fill="#FAA21B" d="M286.077,183.919c0-7.984,6.472-14.457,14.457-14.457c7.986,0,14.455,6.473,14.455,14.457
		c0,7.983-6.469,14.456-14.455,14.456C292.548,198.375,286.077,191.903,286.077,183.919L286.077,183.919z"/>
	<path fill="#FAA21B" d="M113.398,222.898c0-9.579,7.764-17.346,17.346-17.346c9.58,0,17.346,7.767,17.346,17.346
		c0,9.582-7.767,17.349-17.346,17.349C121.162,240.247,113.398,232.48,113.398,222.898L113.398,222.898z"/>
	<path fill="#64AF55" d="M185.3,465.199c0-7.983,6.472-14.456,14.457-14.456c7.983,0,14.456,6.473,14.456,14.456
		c0,7.984-6.473,14.456-14.456,14.456C191.772,479.655,185.3,473.183,185.3,465.199L185.3,465.199z"/>
	<path fill="#607DA8" d="M254.312,465.199c0-7.983,6.472-14.456,14.458-14.456c7.983,0,14.456,6.473,14.456,14.456
		c0,7.984-6.473,14.456-14.456,14.456C260.784,479.655,254.312,473.183,254.312,465.199L254.312,465.199z"/>
	<path fill="#64AF55" d="M116.288,465.199c0-7.983,6.471-14.456,14.456-14.456c7.984,0,14.457,6.473,14.457,14.456
		c0,7.984-6.473,14.456-14.457,14.456C122.759,479.655,116.288,473.183,116.288,465.199L116.288,465.199z"/>
	<path fill="#54C3C0" d="M248.719,193.248c0-7.982,6.473-14.455,14.456-14.455c7.984,0,14.456,6.473,14.456,14.455
		c0,7.985-6.472,14.456-14.456,14.456C255.192,207.704,248.719,201.233,248.719,193.248L248.719,193.248z"/>
	<path fill="#6C58A6" d="M259.908,128.888c0-7.984,6.472-14.457,14.454-14.457c7.986,0,14.456,6.472,14.456,14.457
		c0,7.983-6.47,14.456-14.456,14.456C266.379,143.344,259.908,136.872,259.908,128.888L259.908,128.888z"/>
	<path fill="#4F84C5" d="M150.794,251.812c0-7.984,6.471-14.456,14.456-14.456c7.984,0,14.456,6.472,14.456,14.456
		c0,7.983-6.472,14.454-14.456,14.454C157.265,266.266,150.794,259.795,150.794,251.812L150.794,251.812z"/>
	<path fill="#64AF55" d="M81.782,251.812c0-7.984,6.471-14.456,14.456-14.456c7.984,0,14.456,6.472,14.456,14.456
		c0,7.983-6.472,14.454-14.456,14.454C88.253,266.266,81.782,259.795,81.782,251.812L81.782,251.812z"/>
	<path fill="#E01E32" d="M219.806,251.812c0-7.984,6.471-14.456,14.457-14.456c7.984,0,14.456,6.472,14.456,14.456
		c0,7.983-6.472,14.456-14.456,14.456C226.277,266.268,219.806,259.795,219.806,251.812L219.806,251.812z"/>
	<path fill="#64AF55" d="M288.818,227.47c0-7.986,6.474-14.459,14.456-14.459c7.982,0,14.457,6.473,14.457,14.459
		c0,7.983-6.475,14.456-14.457,14.456C295.292,241.926,288.818,235.454,288.818,227.47L288.818,227.47z"/>
	<path fill="#FAA21B" d="M150.794,290.608c0-7.984,6.471-14.454,14.456-14.454c7.984,0,14.456,6.47,14.456,14.454
		c0,7.983-6.472,14.46-14.456,14.46C157.265,305.068,150.794,298.591,150.794,290.608L150.794,290.608z"/>
	<path fill="#64AF55" d="M81.782,290.608c0-7.984,6.471-14.454,14.456-14.454c7.984,0,14.456,6.47,14.456,14.454
		c0,7.983-6.472,14.46-14.456,14.46C88.253,305.068,81.782,298.591,81.782,290.608L81.782,290.608z"/>
	<path fill="#64AF55" d="M219.806,329.408c0-7.986,6.471-14.456,14.457-14.456c7.984,0,14.456,6.47,14.456,14.456
		c0,7.984-6.472,14.456-14.456,14.456C226.277,343.864,219.806,337.392,219.806,329.408L219.806,329.408z"/>
	<path fill="#8C52A1" d="M288.818,329.408c0-7.986,6.474-14.456,14.456-14.456c7.982,0,14.457,6.47,14.457,14.456
		c0,7.984-6.475,14.456-14.457,14.456C295.292,343.864,288.818,337.392,288.818,329.408L288.818,329.408z"/>
	<path fill="#64AF55" d="M150.794,329.408c0-7.986,6.471-14.456,14.456-14.456c7.984,0,14.456,6.47,14.456,14.456
		c0,7.984-6.472,14.456-14.456,14.456C157.265,343.864,150.794,337.392,150.794,329.408L150.794,329.408z"/>
	<path fill="#64AF55" d="M81.782,329.408c0-7.986,6.471-14.456,14.456-14.456c7.984,0,14.456,6.47,14.456,14.456
		c0,7.984-6.472,14.456-14.456,14.456C88.253,343.864,81.782,337.392,81.782,329.408L81.782,329.408z"/>
	<path fill="#64AF55" d="M219.806,368.204c0-7.981,6.471-14.456,14.457-14.456c7.984,0,14.456,6.475,14.456,14.456
		c0,7.984-6.472,14.456-14.456,14.456C226.277,382.66,219.806,376.188,219.806,368.204L219.806,368.204z"/>
	<path fill="#54C3C0" d="M245.92,314.952c0-9.315,7.727-16.865,17.255-16.865c9.526,0,17.253,7.55,17.253,16.865
		c0,9.312-7.727,16.863-17.253,16.863C253.647,331.815,245.92,324.263,245.92,314.952L245.92,314.952z"/>
	<path fill="#64AF55" d="M150.794,368.204c0-7.981,6.471-14.456,14.456-14.456c7.984,0,14.456,6.475,14.456,14.456
		c0,7.984-6.472,14.456-14.456,14.456C157.265,382.66,150.794,376.188,150.794,368.204L150.794,368.204z"/>
	<path fill="#64AF55" d="M81.782,368.204c0-7.981,6.471-14.456,14.456-14.456c7.984,0,14.456,6.475,14.456,14.456
		c0,7.984-6.472,14.456-14.456,14.456C88.253,382.66,81.782,376.188,81.782,368.204L81.782,368.204z"/>
	<path fill="#FAA21B" d="M219.806,407.003c0-7.985,6.471-14.458,14.457-14.458c7.984,0,14.456,6.473,14.456,14.458
		c0,7.982-6.472,14.457-14.456,14.457C226.277,421.46,219.806,414.986,219.806,407.003L219.806,407.003z"/>
	<path fill="#FFCA36" d="M408.74,405.325c0-14.371,11.65-26.021,26.02-26.021s26.023,11.649,26.023,26.021
		c0,14.37-11.654,26.021-26.023,26.021S408.74,419.695,408.74,405.325L408.74,405.325z"/>
	<path fill="#64AF55" d="M150.794,407.003c0-7.985,6.471-14.458,14.456-14.458c7.984,0,14.456,6.473,14.456,14.458
		c0,7.982-6.472,14.457-14.456,14.457C157.265,421.46,150.794,414.986,150.794,407.003L150.794,407.003z"/>
	<path fill="#64AF55" d="M81.782,407.003c0-7.985,6.471-14.458,14.456-14.458c7.984,0,14.456,6.473,14.456,14.458
		c0,7.982-6.472,14.457-14.456,14.457C88.253,421.46,81.782,414.986,81.782,407.003L81.782,407.003z"/>
	<path fill="#64AF55" d="M219.806,445.8c0-7.984,6.471-14.454,14.457-14.454c7.984,0,14.456,6.47,14.456,14.454
		c0,7.983-6.472,14.456-14.456,14.456C226.277,460.256,219.806,453.784,219.806,445.8L219.806,445.8z"/>
	<path fill="#64AF55" d="M287.149,451.652c0-7.988,6.474-14.456,14.457-14.456c7.979,0,14.455,6.468,14.455,14.456
		c0,7.981-7.307,14.456-15.295,14.456C292.785,466.108,287.149,459.633,287.149,451.652L287.149,451.652z"/>
	<path fill="#64AF55" d="M150.794,445.8c0-7.984,6.471-14.454,14.456-14.454c7.984,0,14.456,6.47,14.456,14.454
		c0,7.983-6.472,14.456-14.456,14.456C157.265,460.256,150.794,453.784,150.794,445.8L150.794,445.8z"/>
	<path fill="#64AF55" d="M81.782,445.8c0-7.984,6.471-14.454,14.456-14.454c7.984,0,14.456,6.47,14.456,14.454
		c0,7.983-6.472,14.456-14.456,14.456C88.253,460.256,81.782,453.784,81.782,445.8L81.782,445.8z"/>
	<path fill="#5453A4" d="M178.616,275.389c0-7.984,6.471-14.456,14.457-14.456c7.982,0,14.453,6.472,14.453,14.456
		c0,7.985-6.471,14.454-14.453,14.454C185.086,289.843,178.616,283.375,178.616,275.389L178.616,275.389z"/>
	<g>
		<path fill="#5453A4" d="M312.471,271.21c0-7.983,6.469-14.456,14.455-14.456c7.982,0,14.457,6.473,14.457,14.456
			c0,7.986-6.475,14.454-14.457,14.454C318.939,285.665,312.471,279.197,312.471,271.21L312.471,271.21z"/>
		<path fill="#D4D832" d="M384.033,169.462c0-9.045,7.514-16.378,16.785-16.378s16.793,7.333,16.793,16.378
			c0,9.046-7.521,16.378-16.793,16.378S384.033,178.508,384.033,169.462L384.033,169.462z"/>
	</g>
	<path fill="#C95843" d="M116.288,271.21c0-7.983,6.471-14.456,14.456-14.456c7.984,0,14.457,6.473,14.457,14.456
		c0,7.986-6.473,14.454-14.457,14.454C122.759,285.665,116.288,279.197,116.288,271.21L116.288,271.21z"/>
	<path fill="#64AF55" d="M47.274,271.21c0-7.983,6.472-14.456,14.457-14.456c7.984,0,14.456,6.473,14.456,14.456
		c0,7.986-6.472,14.454-14.456,14.454C53.747,285.665,47.274,279.197,47.274,271.21L47.274,271.21z"/>
	<path fill="#64AF55" d="M185.3,310.007c0-7.984,6.472-14.457,14.457-14.457c7.983,0,14.456,6.473,14.456,14.457
		c0,7.985-6.473,14.457-14.456,14.457C191.772,324.464,185.3,317.993,185.3,310.007L185.3,310.007z"/>
	<g>
		<path fill="#E9345F" d="M379.344,407.003c0-7.985,6.469-14.458,14.451-14.458c7.988,0,14.457,6.473,14.457,14.458
			c0,7.982-6.469,14.453-14.457,14.453C385.812,421.457,379.344,414.986,379.344,407.003L379.344,407.003z"/>
		<path fill="#BE4C89" d="M425.059,334.351c0-7.984,6.469-14.456,14.457-14.456c7.98,0,14.455,6.472,14.455,14.456
			c0,7.981-6.475,14.456-14.455,14.456C431.527,348.807,425.059,342.333,425.059,334.351L425.059,334.351z"/>
	</g>
	<path fill="#64AF55" d="M116.288,310.007c0-7.984,6.471-14.457,14.456-14.457c7.984,0,14.457,6.473,14.457,14.457
		c0,7.985-6.473,14.457-14.457,14.457C122.759,324.464,116.288,317.993,116.288,310.007L116.288,310.007z"/>
	<path fill="#64AF55" d="M47.274,310.007c0-7.984,6.472-14.457,14.457-14.457c7.984,0,14.456,6.473,14.456,14.457
		c0,7.985-6.472,14.457-14.456,14.457C53.747,324.464,47.274,317.993,47.274,310.007L47.274,310.007z"/>
	<path fill="#B64C3E" d="M185.3,348.807c0-7.984,6.472-14.456,14.457-14.456c7.983,0,14.456,6.472,14.456,14.456
		c0,7.981-6.473,14.454-14.456,14.454C191.772,363.261,185.3,356.789,185.3,348.807L185.3,348.807z"/>
	<g>
		<path fill="#5453A4" d="M254.312,348.807c0-7.984,6.472-14.456,14.458-14.456c7.983,0,14.456,6.472,14.456,14.456
			c0,7.981-6.473,14.454-14.456,14.454C260.784,363.261,254.312,356.789,254.312,348.807L254.312,348.807z"/>
		<path fill="#A05F81" d="M288.818,368.204c0-7.981,6.474-14.454,14.456-14.454c7.982,0,14.457,6.473,14.457,14.454
			c0,7.984-6.475,14.456-14.457,14.456C295.292,382.66,288.818,376.188,288.818,368.204L288.818,368.204z"/>
	</g>
	<path fill="#64AF55" d="M116.288,348.807c0-7.984,6.471-14.456,14.456-14.456c7.984,0,14.457,6.472,14.457,14.456
		c0,7.981-6.473,14.454-14.457,14.454C122.759,363.261,116.288,356.789,116.288,348.807L116.288,348.807z"/>
	<path fill="#64AF55" d="M47.274,348.807c0-7.984,6.472-14.456,14.457-14.456c7.984,0,14.456,6.472,14.456,14.456
		c0,7.981-6.472,14.454-14.456,14.454C53.747,363.261,47.274,356.789,47.274,348.807L47.274,348.807z"/>
	<path fill="#E11A2C" d="M185.3,387.603c0-7.984,6.472-14.456,14.457-14.456c7.983,0,14.456,6.472,14.456,14.456
		c0,7.985-6.473,14.454-14.456,14.454C191.772,402.057,185.3,395.588,185.3,387.603L185.3,387.603z"/>
	<g>
		<path fill="#B3D334" d="M254.312,387.603c0-7.984,6.472-14.456,14.458-14.456c7.983,0,14.456,6.472,14.456,14.456
			c0,7.985-6.473,14.454-14.456,14.454C260.784,402.057,254.312,395.588,254.312,387.603L254.312,387.603z"/>
		<path fill="#FCB34C" d="M332.16,373.149c0-8.781,7.117-15.903,15.898-15.903s15.904,7.122,15.904,15.903
			c0,8.783-7.123,15.898-15.904,15.898S332.16,381.932,332.16,373.149L332.16,373.149z"/>
	</g>
	<path fill="#E11A2C" d="M116.288,387.603c0-7.984,6.471-14.456,14.456-14.456c7.984,0,14.457,6.472,14.457,14.456
		c0,7.985-6.473,14.454-14.457,14.454C122.759,402.057,116.288,395.588,116.288,387.603L116.288,387.603z"/>
	<path fill="#64AF55" d="M47.274,387.603c0-7.984,6.472-14.456,14.457-14.456c7.984,0,14.456,6.472,14.456,14.456
		c0,7.985-6.472,14.454-14.456,14.454C53.747,402.057,47.274,395.588,47.274,387.603L47.274,387.603z"/>
	<path fill="#64AF55" d="M185.3,426.401c0-7.982,6.472-14.454,14.457-14.454c7.983,0,14.456,6.472,14.456,14.454
		c0,7.984-6.473,14.456-14.456,14.456C191.772,440.857,185.3,434.385,185.3,426.401L185.3,426.401z"/>
	<g>
		<path fill="#64AF55" d="M254.312,420.551c0-7.982,6.472-14.456,14.458-14.456c7.983,0,14.456,6.474,14.456,14.456
			s-6.473,14.456-14.456,14.456C260.784,435.007,254.312,428.534,254.312,420.551L254.312,420.551z"/>
		<path fill="#E65748" d="M323.324,442.279c0-7.984,6.475-14.452,14.457-14.452c7.98,0,14.455,6.468,14.455,14.452
			c0,7.985-6.475,14.458-14.455,14.458C329.799,456.737,323.324,450.264,323.324,442.279L323.324,442.279z"/>
	</g>
	<path fill="#64AF55" d="M116.288,426.401c0-7.982,6.471-14.454,14.456-14.454c7.984,0,14.457,6.472,14.457,14.454
		c0,7.984-6.473,14.456-14.457,14.456C122.759,440.857,116.288,434.385,116.288,426.401L116.288,426.401z"/>
	<g>
		<path fill="#64AF55" d="M47.274,426.401c0-7.982,6.472-14.454,14.457-14.454c7.984,0,14.456,6.472,14.456,14.454
			c0,7.984-6.472,14.456-14.456,14.456C53.747,440.857,47.274,434.385,47.274,426.401L47.274,426.401z"/>
	</g>
</g>
<g>
	<path fill="#FAA21B" d="M376.973,353.748c0-7.981,6.469-14.454,14.455-14.454c7.982,0,14.457,6.473,14.457,14.454
		c0,7.984-6.475,14.456-14.457,14.456C383.441,368.204,376.973,361.732,376.973,353.748L376.973,353.748z"/>
	<path fill="#DD3E59" d="M339.387,305.064c0-10.378,8.41-18.792,18.791-18.792c10.377,0,18.795,8.414,18.795,18.792
		c0,10.38-8.418,18.794-18.795,18.794C347.797,323.858,339.387,315.444,339.387,305.064L339.387,305.064z"/>
	<path fill="#FFCA36" d="M262.917,251.812c0-7.984,6.472-14.456,14.456-14.456c7.981,0,14.456,6.472,14.456,14.456
		c0,7.981-6.475,14.454-14.456,14.454C269.388,266.266,262.917,259.793,262.917,251.812L262.917,251.812z"/>
	<path fill="#A1CD3A" d="M225.401,91.369c0-7.982,6.473-14.453,14.455-14.453c7.985,0,14.456,6.471,14.456,14.453
		c0,7.985-6.471,14.457-14.456,14.457C231.874,105.826,225.401,99.354,225.401,91.369L225.401,91.369z"/>
	<path fill="#FFCA36" d="M185.3,193.248c0-7.982,6.472-14.455,14.457-14.455c7.98,0,14.456,6.473,14.456,14.455
		c0,7.985-6.476,14.456-14.456,14.456C191.772,207.704,185.3,201.233,185.3,193.248L185.3,193.248z"/>
	<path fill="#AAD04D" d="M379.826,251.81c0-15.969,12.945-28.912,28.908-28.912c15.971,0,28.918,12.943,28.918,28.912
		c0,15.968-12.947,28.912-28.918,28.912C392.771,280.722,379.826,267.778,379.826,251.81L379.826,251.81z"/>
	<path fill="#BE4C89" d="M410.604,324.464c0-7.987,6.467-14.457,14.455-14.457c7.982,0,14.457,6.47,14.457,14.457
		c0,7.982-6.475,14.457-14.457,14.457C417.07,338.921,410.604,332.447,410.604,324.464L410.604,324.464z"/>
	<path fill="#FFCA36" d="M219.806,290.608c0-7.984,6.471-14.454,14.457-14.454c7.982,0,14.456,6.47,14.456,14.454
		c0,7.983-6.474,14.456-14.456,14.456C226.277,305.064,219.806,298.591,219.806,290.608L219.806,290.608z"/>
	<path fill="#6255A4" d="M364.887,241.926c0-7.986,6.471-14.456,14.453-14.456c7.984,0,14.461,6.47,14.461,14.456
		c0,7.981-6.477,14.456-14.461,14.456C371.357,256.382,364.887,249.908,364.887,241.926L364.887,241.926z"/>
	<path fill="#6DCBD4" d="M350.43,213.011c0-7.981,6.471-14.454,14.451-14.454c7.988,0,14.463,6.473,14.463,14.454
		c0,7.986-6.475,14.459-14.463,14.459C356.9,227.47,350.43,220.998,350.43,213.011L350.43,213.011z"/>
	<path fill="#54C3C0" d="M464.586,387.603c0-7.984,6.471-14.456,14.457-14.456c7.982,0,14.455,6.472,14.455,14.456
		c0,7.982-6.473,14.454-14.455,14.454C471.057,402.057,464.586,395.585,464.586,387.603L464.586,387.603z"/>
	<path fill="#E65748" d="M317.703,99.977c0-7.984,6.471-14.456,14.453-14.456c7.984,0,14.461,6.472,14.461,14.456
		c0,7.982-6.477,14.455-14.461,14.455C324.174,114.432,317.703,107.958,317.703,99.977L317.703,99.977z"/>
	<path fill="#BF507F" d="M399.736,193.248c0-7.982,6.475-14.455,14.457-14.455s14.455,6.473,14.455,14.455
		c0,7.985-6.473,14.456-14.455,14.456S399.736,201.233,399.736,193.248L399.736,193.248z"/>
	<path fill="#50BE9D" d="M268.77,66.548c0-7.985,6.472-14.457,14.456-14.457c7.983,0,14.456,6.472,14.456,14.457
		c0,7.982-6.473,14.455-14.456,14.455C275.242,81.003,268.77,74.53,268.77,66.548L268.77,66.548z"/>
	<path fill="#64AF55" d="M353.32,144.998c0-11.176,9.059-20.237,20.24-20.237c11.174,0,20.24,9.062,20.24,20.237
		c0,11.179-9.066,20.241-20.24,20.241C362.379,165.239,353.32,156.176,353.32,144.998L353.32,144.998z"/>
	<path fill="#AAD04D" d="M376.973,85.521c0-9.138,7.109-16.546,15.881-16.546c8.77,0,15.887,7.409,15.887,16.546
		c0,9.137-7.117,16.546-15.887,16.546C384.082,102.067,376.973,94.657,376.973,85.521L376.973,85.521z"/>
	<path fill="#AAD04D" d="M471.855,411.943c0-7.982,6.475-14.454,14.457-14.454c7.988,0,14.455,6.472,14.455,14.454
		c0,7.986-6.467,14.458-14.455,14.458C478.33,426.401,471.855,419.929,471.855,411.943L471.855,411.943z"/>
	<path fill="#5CC1A0" d="M450.131,237.356c0-7.986,6.469-14.458,14.455-14.458c7.982,0,14.457,6.472,14.457,14.458
		c0,7.981-6.475,14.456-14.457,14.456C456.6,251.812,450.131,245.337,450.131,237.356L450.131,237.356z"/>
	<path fill="#F6A92B" d="M471.855,237.356c0-7.986,6.475-14.458,14.457-14.458c7.988,0,14.455,6.472,14.455,14.458
		c0,7.981-6.467,14.456-14.455,14.456C478.33,251.812,471.855,245.337,471.855,237.356L471.855,237.356z"/>
	<path fill="#DC1E32" d="M500.768,339.293c0-7.983,6.477-14.456,14.459-14.456c7.98,0,14.455,6.473,14.455,14.456
		c0,7.984-6.475,14.454-14.455,14.454C507.244,353.748,500.768,347.278,500.768,339.293L500.768,339.293z"/>
	<path fill="#65CBE0" d="M113.398,52.091c0-13.411,10.871-24.285,24.284-24.285s24.287,10.874,24.287,24.285
		c0,13.414-10.874,24.286-24.287,24.286S113.398,65.505,113.398,52.091L113.398,52.091z"/>
	<path fill="#EDE811" d="M464.586,465.199c0-7.983,6.471-14.456,14.457-14.456c7.982,0,14.455,6.473,14.455,14.456
		c0,7.982-6.473,14.456-14.455,14.456C471.057,479.655,464.586,473.181,464.586,465.199L464.586,465.199z"/>
	<path fill="#7E61AA" d="M185.3,37.635c0-7.983,6.472-14.455,14.457-14.455c7.98,0,14.456,6.472,14.456,14.455
		c0,7.985-6.476,14.456-14.456,14.456C191.772,52.091,185.3,45.62,185.3,37.635L185.3,37.635z"/>
	<path fill="#64AF55" d="M185.3,143.344c0-7.985,6.472-14.456,14.457-14.456c7.98,0,14.456,6.471,14.456,14.456
		c0,7.982-6.476,14.456-14.456,14.456C191.772,157.8,185.3,151.327,185.3,143.344L185.3,143.344z"/>
	<path fill="#7E61AA" d="M373.561,445.8c0-7.984,6.469-14.454,14.449-14.454c7.988,0,14.463,6.47,14.463,14.454
		c0,7.983-6.475,14.456-14.463,14.456C380.029,460.256,373.561,453.784,373.561,445.8L373.561,445.8z"/>
	<path fill="#EDE811" d="M426.303,68.974c0-13.705,10.666-24.815,23.822-24.815c13.16,0,23.83,11.111,23.83,24.815
		c0,13.706-10.67,24.819-23.83,24.819C436.969,93.793,426.303,82.68,426.303,68.974L426.303,68.974z"/>
	<path fill="#DC1E32" d="M415.967,503.996c0-11.975,9.713-21.682,21.682-21.682c11.975,0,21.688,9.707,21.688,21.682
		c0,11.976-9.713,21.685-21.688,21.685C425.68,525.68,415.967,515.971,415.967,503.996L415.967,503.996z"/>
	<path fill="#4F84C5" d="M486.312,150.42c0-7.982,6.475-14.454,14.455-14.454c7.982,0,14.459,6.472,14.459,14.454
		c0,7.983-6.477,14.456-14.459,14.456C492.787,164.876,486.312,158.404,486.312,150.42L486.312,150.42z"/>
	<path fill="#64AF55" d="M408.953,484.596c0-9.581,7.77-17.346,17.35-17.346c9.578,0,17.348,7.765,17.348,17.346
		c0,9.582-7.77,17.349-17.348,17.349C416.723,501.945,408.953,494.178,408.953,484.596L408.953,484.596z"/>
</g>
</svg>
