<svg xmlns="http://www.w3.org/2000/svg" width="2007pt" height="856pt" viewBox="0 0 2007 856"><g fill="#fff"><path d="M1587.395 36.887c0-20.114 16.304-36.422 36.418-36.422 20.11 0 36.417 16.308 36.417 36.422 0 20.117-16.308 36.425-36.418 36.425-20.113 0-36.417-16.308-36.417-36.425m0 782.043c0-20.117 16.304-36.426 36.418-36.426 20.11 0 36.417 16.308 36.417 36.426 0 20.113-16.308 36.422-36.418 36.422-20.113 0-36.417-16.31-36.417-36.422m86.94-733.164c0-20.118 16.294-36.422 36.42-36.422 20.112 0 36.417 16.304 36.417 36.422 0 20.117-16.305 36.42-36.418 36.42-20.125 0-36.418-16.303-36.418-36.42m-173.886 0c0-20.118 16.308-36.422 36.417-36.422 20.113 0 36.422 16.304 36.422 36.422 0 20.117-16.31 36.42-36.43 36.42-20.11 0-36.42-16.303-36.42-36.42m173.89 684.284c0-20.116 16.29-36.42 36.42-36.42 20.11 0 36.42 16.304 36.42 36.42 0 20.118-16.31 36.423-36.42 36.423-20.13 0-36.42-16.305-36.42-36.422m-173.89 0c0-20.11 16.3-36.42 36.41-36.42 20.11 0 36.42 16.31 36.42 36.42 0 20.12-16.31 36.43-36.43 36.43-20.11 0-36.42-16.3-36.42-36.42m86.94-635.4c0-20.12 16.3-36.42 36.42-36.42 20.11 0 36.42 16.31 36.42 36.43s-16.31 36.42-36.42 36.42c-20.12 0-36.42-16.3-36.42-36.42m173.88 0c0-20.11 16.29-36.42 36.42-36.42 20.11 0 36.42 16.31 36.42 36.42 0 20.12-16.31 36.42-36.42 36.42-20.12 0-36.42-16.3-36.42-36.42m-347.77 0c0-20.11 16.31-36.42 36.42-36.42 20.11 0 36.41 16.31 36.41 36.43s-16.31 36.42-36.42 36.42c-20.11 0-36.42-16.3-36.42-36.42m173.9 586.52c0-20.11 16.3-36.42 36.42-36.42 20.11 0 36.42 16.31 36.42 36.42 0 20.12-16.31 36.43-36.42 36.43-20.12 0-36.42-16.31-36.42-36.42m173.88 0c0-20.11 16.29-36.42 36.42-36.42 20.11 0 36.42 16.31 36.42 36.42 0 20.12-16.31 36.43-36.42 36.43-20.12 0-36.42-16.31-36.42-36.42m-347.77 0c0-20.11 16.31-36.42 36.42-36.42 20.11 0 36.41 16.31 36.41 36.42 0 20.12-16.31 36.43-36.42 36.43-20.11 0-36.42-16.31-36.42-36.42m260.83-537.65c0-20.11 16.29-36.42 36.41-36.42 20.11 0 36.42 16.31 36.42 36.42 0 20.12-16.3 36.43-36.41 36.43-20.12 0-36.42-16.31-36.42-36.43m173.87 0c0-20.11 16.31-36.42 36.44-36.42 20.11 0 36.42 16.31 36.42 36.42S1904.71 220 1884.6 220c-20.12 0-36.43-16.302-36.43-36.42m-347.76 0c0-20.114 16.31-36.422 36.42-36.422 20.11 0 36.42 16.31 36.42 36.425 0 20.12-16.31 36.43-36.426 36.43-20.11 0-36.42-16.31-36.42-36.427m-173.89 0c0-20.11 16.31-36.42 36.425-36.42 20.11 0 36.42 16.31 36.42 36.425 0 20.11-16.31 36.42-36.42 36.42-20.12 0-36.43-16.31-36.43-36.42m347.78 97.76c0-20.12 16.29-36.42 36.41-36.42 20.11 0 36.42 16.31 36.42 36.43s-16.31 36.42-36.42 36.42c-20.13 0-36.42-16.31-36.42-36.42m173.87 0c0-20.11 16.31-36.42 36.43-36.42 20.11 0 36.42 16.31 36.42 36.43s-16.31 36.42-36.42 36.42c-20.13 0-36.43-16.31-36.43-36.42m-347.76 0c0-20.12 16.31-36.42 36.41-36.42 20.11 0 36.42 16.31 36.42 36.43 0 20.11-16.31 36.42-36.42 36.42-20.11 0-36.42-16.31-36.42-36.42m-173.89 0c0-20.12 16.31-36.42 36.43-36.42 20.11 0 36.42 16.31 36.42 36.42 0 20.12-16.31 36.42-36.42 36.42-20.12 0-36.43-16.3-36.43-36.42m347.77 97.76c0-20.12 16.29-36.42 36.42-36.42 20.11 0 36.42 16.3 36.42 36.42s-16.31 36.42-36.42 36.42c-20.13 0-36.42-16.3-36.42-36.42m173.87 0c0-20.11 16.31-36.42 36.43-36.42 20.11 0 36.42 16.31 36.42 36.42s-16.31 36.43-36.42 36.43c-20.13 0-36.43-16.31-36.43-36.42m-347.76 0c0-20.12 16.31-36.42 36.41-36.42 20.11 0 36.42 16.3 36.42 36.42s-16.31 36.42-36.43 36.42c-20.11 0-36.42-16.31-36.42-36.42m-173.89 0c0-20.11 16.3-36.42 36.42-36.42 20.11 0 36.42 16.31 36.42 36.42 0 20.12-16.31 36.43-36.42 36.43-20.12 0-36.42-16.3-36.42-36.42m347.77 97.76c0-20.11 16.29-36.42 36.42-36.42 20.11 0 36.42 16.31 36.42 36.42s-16.31 36.43-36.42 36.43c-20.13 0-36.42-16.31-36.42-36.42m173.87 0c0-20.12 16.31-36.42 36.43-36.42 20.11 0 36.42 16.3 36.42 36.42s-16.31 36.42-36.42 36.42c-20.12 0-36.43-16.3-36.43-36.42m-347.76 0c0-20.12 16.31-36.42 36.41-36.42 20.11 0 36.42 16.3 36.42 36.42s-16.31 36.42-36.43 36.42c-20.11 0-36.42-16.3-36.42-36.42m-173.89 0c0-20.12 16.3-36.42 36.42-36.42 20.11 0 36.41 16.31 36.41 36.42s-16.31 36.42-36.42 36.42c-20.12 0-36.43-16.3-36.43-36.42m347.78 97.75c0-20.11 16.29-36.42 36.42-36.42 20.11 0 36.42 16.31 36.42 36.42 0 20.12-16.31 36.43-36.42 36.43-20.12 0-36.42-16.31-36.42-36.43m173.87 0c0-20.11 16.31-36.42 36.44-36.42 20.11 0 36.42 16.31 36.42 36.42 0 20.12-16.31 36.43-36.42 36.43-20.12 0-36.43-16.31-36.43-36.42m-347.76.01c0-20.12 16.31-36.43 36.42-36.43 20.11 0 36.42 16.31 36.42 36.42 0 20.12-16.31 36.43-36.42 36.43-20.11 0-36.42-16.31-36.42-36.43m-173.89 0c0-20.11 16.31-36.42 36.42-36.42 20.11 0 36.42 16.31 36.42 36.43s-16.31 36.42-36.42 36.42c-20.11 0-36.42-16.31-36.42-36.43m347.8 97.75c0-20.11 16.29-36.42 36.42-36.42 20.11 0 36.42 16.31 36.42 36.43s-16.3 36.43-36.41 36.43c-20.12 0-36.42-16.31-36.42-36.42m173.87 0c0-20.12 16.31-36.43 36.44-36.43 20.11 0 36.42 16.31 36.42 36.43s-16.31 36.42-36.42 36.42c-20.12 0-36.43-16.31-36.43-36.42m-347.76 0c0-20.12 16.31-36.43 36.42-36.43 20.11 0 36.42 16.31 36.42 36.43s-16.31 36.42-36.43 36.42c-20.11 0-36.42-16.31-36.42-36.42m-173.89 0c0-20.11 16.31-36.42 36.42-36.42 20.11 0 36.42 16.31 36.42 36.43s-16.31 36.43-36.42 36.43c-20.11 0-36.42-16.3-36.42-36.42m260.83-439.9c0-20.11 16.3-36.42 36.42-36.42 20.11 0 36.42 16.31 36.42 36.42 0 20.12-16.31 36.43-36.42 36.43-20.11 0-36.42-16.31-36.42-36.43m173.88 0c0-20.11 16.3-36.42 36.42-36.42 20.11 0 36.42 16.31 36.42 36.42 0 20.12-16.31 36.43-36.43 36.43s-36.42-16.31-36.42-36.42m173.87 0c0-20.11 16.31-36.42 36.44-36.42 20.11 0 36.42 16.31 36.42 36.42 0 20.12-16.31 36.43-36.42 36.43-20.13 0-36.43-16.31-36.43-36.43m-521.64 0c0-20.12 16.31-36.42 36.42-36.42 20.11 0 36.42 16.3 36.42 36.42 0 20.11-16.3 36.42-36.41 36.42-20.11 0-36.42-16.31-36.42-36.42m-173.89 0c0-20.12 16.31-36.42 36.42-36.42 20.11 0 36.42 16.3 36.42 36.42s-16.31 36.42-36.42 36.42-36.42-16.31-36.42-36.42m347.78 97.75c0-20.12 16.3-36.42 36.42-36.42 20.11 0 36.42 16.3 36.42 36.42s-16.31 36.42-36.42 36.42c-20.11 0-36.42-16.31-36.42-36.42m173.88 0c0-20.12 16.3-36.42 36.42-36.42 20.11 0 36.42 16.3 36.42 36.42s-16.31 36.42-36.43 36.42-36.42-16.31-36.42-36.43m173.87 0c0-20.12 16.31-36.42 36.43-36.42 20.11 0 36.41 16.3 36.41 36.42s-16.3 36.43-36.42 36.43-36.43-16.31-36.43-36.43m-521.64 0c0-20.12 16.31-36.42 36.42-36.42 20.11 0 36.42 16.3 36.42 36.42s-16.31 36.42-36.42 36.42c-20.11 0-36.42-16.31-36.42-36.43m-173.89 0c0-20.12 16.31-36.42 36.42-36.42 20.12 0 36.43 16.3 36.43 36.42s-16.31 36.43-36.43 36.43-36.43-16.31-36.43-36.43m347.8 97.72c0-20.12 16.3-36.42 36.42-36.42 20.11 0 36.42 16.31 36.42 36.42 0 20.11-16.31 36.42-36.42 36.42s-36.42-16.31-36.42-36.43m173.88 0c0-20.11 16.3-36.42 36.42-36.42 20.11 0 36.42 16.31 36.42 36.42s-16.31 36.43-36.43 36.43-36.42-16.31-36.42-36.43m173.87 0c0-20.12 16.31-36.42 36.43-36.42 20.11 0 36.42 16.31 36.42 36.42 0 20.11-16.31 36.42-36.42 36.42-20.13 0-36.43-16.31-36.43-36.42m-521.64 0c0-20.11 16.31-36.42 36.42-36.42 20.11 0 36.41 16.31 36.41 36.43s-16.31 36.43-36.42 36.43c-20.11 0-36.42-16.31-36.42-36.43m-173.89 0c0-20.11 16.31-36.42 36.42-36.42 20.12 0 36.42 16.31 36.42 36.42 0 20.12-16.31 36.43-36.43 36.43s-36.43-16.31-36.43-36.42m347.78 97.76c0-20.12 16.31-36.43 36.42-36.43 20.11 0 36.42 16.31 36.42 36.42 0 20.11-16.3 36.42-36.41 36.42s-36.42-16.31-36.42-36.42m173.88 0c0-20.12 16.29-36.42 36.41-36.42 20.12 0 36.43 16.31 36.43 36.43 0 20.11-16.31 36.42-36.43 36.42s-36.42-16.31-36.42-36.42m173.87 0c0-20.12 16.31-36.43 36.43-36.43s36.42 16.31 36.42 36.43c0 20.11-16.3 36.42-36.42 36.42S1935 545.9 1935 525.79m-695.53 0c0-20.12 16.31-36.43 36.42-36.43 20.12 0 36.43 16.31 36.43 36.42s-16.31 36.42-36.43 36.42-36.43-16.31-36.43-36.42m347.78 97.76c0-20.115 16.31-36.42 36.42-36.42 20.11 0 36.42 16.306 36.42 36.42s-16.3 36.42-36.41 36.42c-20.12 0-36.42-16.31-36.42-36.43m173.88 0c0-20.12 16.29-36.42 36.42-36.42 20.12 0 36.43 16.3 36.43 36.42s-16.31 36.42-36.43 36.42-36.42-16.31-36.42-36.43m173.87 0c0-20.11 16.31-36.42 36.43-36.42 20.11 0 36.42 16.31 36.42 36.43s-16.31 36.425-36.42 36.425c-20.12 0-36.43-16.31-36.43-36.42m-521.64 0c0-20.12 16.31-36.42 36.42-36.42 20.11 0 36.42 16.3 36.42 36.42s-16.31 36.43-36.42 36.43c-20.11 0-36.42-16.31-36.42-36.43m-173.89 0c0-20.12 16.31-36.42 36.42-36.42 20.11 0 36.42 16.3 36.42 36.42s-16.31 36.428-36.43 36.428c-20.11 0-36.42-16.31-36.42-36.43m-1029-84.68H35.85V441.1h158.2v-36.92H35.868v-88.09H206.28v-35.53H0v293.82h210.574v-35.53m338.328 35.528V280.53h-52.246s-11.847 29.702-13.027 33.25c-42.2 127.02-70.43 211.91-70.43 211.91h-.83s-28.36-84.89-70.78-211.91c-1.2-3.575-13.09-33.25-13.09-33.25h-52.66v293.816h36.05v-173.76c0-8.68-.83-43.41-.83-70.68h.83l80.64 244.438h39.66l80.65-244.848h.83c0 27.68-.83 244.848-.83 244.848h36.05"/><path d="M655.086 313.418h74.105c44.62 0 62.96 15.695 62.96 43.375 0 36.355-24.95 46.52-63.37 46.52h-73.69zM619.22 574.344h124.84c65.688 0 96.594-38.672 96.594-86.184 0-50.812-30.082-64.44-49.5-72.29 32.637-15.284 35.457-42.554 35.457-61.968 0-40.484-24.3-73.375-79.65-73.375H619.22zm35.866-136.996h80.305c32.64 0 70.8 8.265 70.8 49.988 0 33.05-22.46 54.125-64.19 54.125h-86.91V437.35" fill-rule="evenodd"/><path d="M937.727 280.527H899.06v293.817h193.182v-36.926H937.727v-256.89"/><path d="M1426.05 525.805c0-13.23 10.716-23.957 23.958-23.957 13.23 0 23.957 10.726 23.957 23.957 0 13.23-10.727 23.957-23.957 23.957-13.242 0-23.957-10.727-23.957-23.957zm-12.542-.14c0-20.118 16.308-36.427 36.418-36.427 20.113 0 36.418 16.31 36.418 36.426 0 20.113-16.305 36.422-36.418 36.422-20.11 0-36.418-16.31-36.418-36.422" fill-rule="evenodd"/></g></svg>