<svg xmlns="http://www.w3.org/2000/svg" width="64" height="64" viewBox="0 0 64 64"><path d="M32 0C14.327 0 0 14.327 0 32s14.327 32 32 32 32-14.327 32-32S49.673 0 32 0zm15.905 23.843c.016.352.024.706.024 1.062 0 10.844-8.26 23.35-23.35 23.35-4.64 0-8.95-1.36-12.58-3.688.64.076 1.29.115 1.95.115 3.84 0 7.38-1.312 10.19-3.513-3.59-.07-6.63-2.44-7.67-5.7.5.09 1.01.14 1.54.14.75 0 1.47-.1 2.16-.29-3.76-.76-6.59-4.07-6.59-8.05v-.11c1.1.61 2.37.98 3.71 1.02-2.2-1.47-3.65-3.99-3.65-6.83 0-1.51.4-2.92 1.11-4.13 4.05 4.96 10.09 8.23 16.91 8.57-.14-.6-.22-1.23-.22-1.87 0-4.53 3.68-8.21 8.21-8.21 2.36 0 4.49 1 5.99 2.59 1.87-.37 3.62-1.05 5.21-1.99-.617 1.91-1.918 3.52-3.61 4.54 1.66-.2 3.24-.64 4.71-1.29-1.1 1.64-2.49 3.09-4.097 4.25z" fill="#fff"/></svg>