<?xml version="1.0" encoding="UTF-8" standalone="no"?>
<!-- Created with Inkscape (http://www.inkscape.org/) -->

<svg
   xmlns:dc="http://purl.org/dc/elements/1.1/"
   xmlns:cc="http://creativecommons.org/ns#"
   xmlns:rdf="http://www.w3.org/1999/02/22-rdf-syntax-ns#"
   xmlns:svg="http://www.w3.org/2000/svg"
   xmlns="http://www.w3.org/2000/svg"
   xmlns:sodipodi="http://sodipodi.sourceforge.net/DTD/sodipodi-0.dtd"
   xmlns:inkscape="http://www.inkscape.org/namespaces/inkscape"
   id="svg2"
   version="1.1"
   inkscape:version="0.48.4 r9939"
   width="313"
   height="130"
   xml:space="preserve"
   sodipodi:docname="4c_40_years_ws.svg"
   inkscape:export-filename="C:\Users\balazs\Documents\Symposium 2014\logo\4c_40_years_w.png"
   inkscape:export-xdpi="135.20052"
   inkscape:export-ydpi="135.20052"><metadata
     id="metadata8"><rdf:RDF><cc:Work
         rdf:about=""><dc:format>image/svg+xml</dc:format><dc:type
           rdf:resource="http://purl.org/dc/dcmitype/StillImage" /><dc:title /></cc:Work></rdf:RDF></metadata><defs
     id="defs6"><clipPath
   clipPathUnits="userSpaceOnUse"
   id="clipPath18"><path
     d="M 0,942.637 0,0 l 2400.58,0 0,942.637 -2400.58,0 z"
     id="path20"
     inkscape:connector-curvature="0" /></clipPath>
</defs><sodipodi:namedview
     pagecolor="#ffffff"
     bordercolor="#666666"
     borderopacity="1"
     objecttolerance="10"
     gridtolerance="10"
     guidetolerance="10"
     inkscape:pageopacity="0"
     inkscape:pageshadow="2"
     inkscape:window-width="1920"
     inkscape:window-height="1137"
     id="namedview4"
     showgrid="false"
     inkscape:zoom="5.0759642"
     inkscape:cx="142.63072"
     inkscape:cy="11.330519"
     inkscape:window-x="-8"
     inkscape:window-y="-8"
     inkscape:window-maximized="1"
     inkscape:current-layer="g10"
     fit-margin-top="0"
     fit-margin-left="0"
     fit-margin-right="0"
     fit-margin-bottom="0" /><g
     id="g10"
     inkscape:groupmode="layer"
     inkscape:label="ink_ext_XXXXXX"
     transform="matrix(1.25,0,0,-1.25,0,130)"><path
       inkscape:connector-curvature="0"
       id="path22"
       style="fill:#5db446;fill-opacity:1;fill-rule:nonzero;stroke:none"
       d="m 197.79,90.6027 c 0,2.0219 1.639,3.661 3.66,3.661 2.022,0 3.66,-1.6391 3.66,-3.661 0,-2.0214 -1.638,-3.6593 -3.66,-3.6593 -2.021,0 -3.66,1.6379 -3.66,3.6593 l 0,0" /><path
       inkscape:connector-curvature="0"
       id="path24"
       style="fill:#5db446;fill-opacity:1;fill-rule:nonzero;stroke:none"
       d="m 197.79,90.6027 c 0,2.0219 1.639,3.661 3.66,3.661 2.022,0 3.66,-1.6391 3.66,-3.661 0,-2.0214 -1.638,-3.6593 -3.66,-3.6593 -2.021,0 -3.66,1.6379 -3.66,3.6593 l 0,0" /><path
       inkscape:connector-curvature="0"
       id="path26"
       style="fill:#5db446;fill-opacity:1;fill-rule:nonzero;stroke:none"
       d="m 197.79,12.0137 c 0,2.0218 1.639,3.6613 3.66,3.6613 2.022,0 3.66,-1.6395 3.66,-3.6613 0,-2.02112 -1.638,-3.65901 -3.66,-3.65901 -2.021,0 -3.66,1.63789 -3.66,3.65901 l 0,0" /><path
       inkscape:connector-curvature="0"
       id="path28"
       style="fill:#5db446;fill-opacity:1;fill-rule:nonzero;stroke:none"
       d="m 197.79,12.0137 c 0,2.0218 1.639,3.6613 3.66,3.6613 2.022,0 3.66,-1.6395 3.66,-3.6613 0,-2.02112 -1.638,-3.65901 -3.66,-3.65901 -2.021,0 -3.66,1.63789 -3.66,3.65901 l 0,0" /><path
       inkscape:connector-curvature="0"
       id="path30"
       style="fill:#5db446;fill-opacity:1;fill-rule:nonzero;stroke:none"
       d="m 206.527,85.691 c 0,2.0211 1.639,3.6602 3.66,3.6602 2.021,0 3.66,-1.6391 3.66,-3.6602 0,-2.0211 -1.639,-3.6601 -3.66,-3.6601 -2.021,0 -3.66,1.639 -3.66,3.6601 l 0,0" /><path
       inkscape:connector-curvature="0"
       id="path32"
       style="fill:#5db446;fill-opacity:1;fill-rule:nonzero;stroke:none"
       d="m 189.052,85.691 c 0,2.0211 1.64,3.6602 3.661,3.6602 2.022,0 3.661,-1.6391 3.661,-3.6602 0,-2.0211 -1.639,-3.6601 -3.661,-3.6601 -2.021,0 -3.661,1.639 -3.661,3.6601 l 0,0" /><path
       inkscape:connector-curvature="0"
       id="path34"
       style="fill:#5db446;fill-opacity:1;fill-rule:nonzero;stroke:none"
       d="m 206.527,16.9262 c 0,2.0222 1.639,3.6605 3.66,3.6605 2.021,0 3.66,-1.6383 3.66,-3.6605 0,-2.0219 -1.639,-3.6594 -3.66,-3.6594 -2.021,0 -3.66,1.6375 -3.66,3.6594 l 0,0" /><path
       inkscape:connector-curvature="0"
       id="path36"
       style="fill:#5db446;fill-opacity:1;fill-rule:nonzero;stroke:none"
       d="m 189.052,16.9262 c 0,2.0222 1.64,3.6605 3.661,3.6605 2.022,0 3.661,-1.6383 3.661,-3.6605 0,-2.0219 -1.639,-3.6594 -3.661,-3.6594 -2.021,0 -3.661,1.6375 -3.661,3.6594 l 0,0" /><path
       inkscape:connector-curvature="0"
       id="path38"
       style="fill:#5db446;fill-opacity:1;fill-rule:nonzero;stroke:none"
       d="m 197.79,80.7793 c 0,2.0219 1.639,3.6602 3.66,3.6602 2.022,0 3.66,-1.6383 3.66,-3.6602 0,-2.0219 -1.638,-3.6602 -3.66,-3.6602 -2.021,0 -3.66,1.6383 -3.66,3.6602 l 0,0" /><path
       inkscape:connector-curvature="0"
       id="path40"
       style="fill:#5db446;fill-opacity:1;fill-rule:nonzero;stroke:none"
       d="m 215.264,80.7793 c 0,2.0219 1.639,3.6602 3.66,3.6602 2.022,0 3.66,-1.6383 3.66,-3.6602 0,-2.0219 -1.638,-3.6602 -3.66,-3.6602 -2.021,0 -3.66,1.6383 -3.66,3.6602 l 0,0" /><path
       inkscape:connector-curvature="0"
       id="path42"
       style="fill:#5db446;fill-opacity:1;fill-rule:nonzero;stroke:none"
       d="m 180.316,80.7793 c 0,2.0219 1.639,3.6602 3.66,3.6602 2.022,0 3.661,-1.6383 3.661,-3.6602 0,-2.0219 -1.639,-3.6602 -3.661,-3.6602 -2.021,0 -3.66,1.6383 -3.66,3.6602 l 0,0" /><path
       inkscape:connector-curvature="0"
       id="path44"
       style="fill:#5db446;fill-opacity:1;fill-rule:nonzero;stroke:none"
       d="m 197.79,21.8379 c 0,2.0211 1.639,3.6601 3.66,3.6601 2.022,0 3.66,-1.639 3.66,-3.6601 0,-2.0211 -1.638,-3.6602 -3.66,-3.6602 -2.021,0 -3.66,1.6391 -3.66,3.6602 l 0,0" /><path
       inkscape:connector-curvature="0"
       id="path46"
       style="fill:#5db446;fill-opacity:1;fill-rule:nonzero;stroke:none"
       d="m 215.264,21.8379 c 0,2.0211 1.639,3.6601 3.66,3.6601 2.022,0 3.66,-1.639 3.66,-3.6601 0,-2.0211 -1.638,-3.6602 -3.66,-3.6602 -2.021,0 -3.66,1.6391 -3.66,3.6602 l 0,0" /><path
       inkscape:connector-curvature="0"
       id="path48"
       style="fill:#5db446;fill-opacity:1;fill-rule:nonzero;stroke:none"
       d="m 180.316,21.8379 c 0,2.0211 1.639,3.6601 3.66,3.6601 2.022,0 3.661,-1.639 3.661,-3.6601 0,-2.0211 -1.639,-3.6602 -3.661,-3.6602 -2.021,0 -3.66,1.6391 -3.66,3.6602 l 0,0" /><path
       inkscape:connector-curvature="0"
       id="path50"
       style="fill:#5db446;fill-opacity:1;fill-rule:nonzero;stroke:none"
       d="m 206.527,75.8676 c 0,2.0211 1.639,3.6601 3.66,3.6601 2.021,0 3.66,-1.639 3.66,-3.6601 0,-2.0207 -1.639,-3.6602 -3.66,-3.6602 -2.021,0 -3.66,1.6395 -3.66,3.6602 l 0,0" /><path
       inkscape:connector-curvature="0"
       id="path52"
       style="fill:#5db446;fill-opacity:1;fill-rule:nonzero;stroke:none"
       d="m 224,75.8676 c 0,2.0211 1.639,3.6601 3.661,3.6601 2.022,0 3.66,-1.639 3.66,-3.6601 0,-2.0207 -1.638,-3.6602 -3.66,-3.6602 -2.022,0 -3.661,1.6395 -3.661,3.6602 l 0,0" /><path
       inkscape:connector-curvature="0"
       id="path54"
       style="fill:#5db446;fill-opacity:1;fill-rule:nonzero;stroke:none"
       d="m 189.052,75.8676 c 0,2.0211 1.64,3.6601 3.661,3.6601 2.022,0 3.661,-1.639 3.661,-3.6601 0,-2.0207 -1.639,-3.6602 -3.661,-3.6602 -2.021,0 -3.661,1.6395 -3.661,3.6602 l 0,0" /><path
       inkscape:connector-curvature="0"
       id="path56"
       style="fill:#5db446;fill-opacity:1;fill-rule:nonzero;stroke:none"
       d="m 171.579,75.8676 c 0,2.0211 1.639,3.6601 3.66,3.6601 2.021,0 3.66,-1.639 3.66,-3.6601 0,-2.0207 -1.639,-3.6602 -3.66,-3.6602 -2.021,0 -3.66,1.6395 -3.66,3.6602 l 0,0" /><path
       inkscape:connector-curvature="0"
       id="path58"
       style="fill:#5db446;fill-opacity:1;fill-rule:nonzero;stroke:none"
       d="m 206.527,66.0434 c 0,2.0222 1.639,3.6609 3.66,3.6609 2.021,0 3.66,-1.6387 3.66,-3.6609 0,-2.0204 -1.639,-3.6594 -3.66,-3.6594 -2.021,0 -3.66,1.639 -3.66,3.6594 l 0,0" /><path
       inkscape:connector-curvature="0"
       id="path60"
       style="fill:#5db446;fill-opacity:1;fill-rule:nonzero;stroke:none"
       d="m 224,66.0434 c 0,2.0222 1.639,3.6609 3.661,3.6609 2.022,0 3.66,-1.6387 3.66,-3.6609 0,-2.0204 -1.638,-3.6594 -3.66,-3.6594 -2.022,0 -3.661,1.639 -3.661,3.6594 l 0,0" /><path
       inkscape:connector-curvature="0"
       id="path62"
       style="fill:#5db446;fill-opacity:1;fill-rule:nonzero;stroke:none"
       d="m 189.052,66.0434 c 0,2.0222 1.64,3.6609 3.661,3.6609 2.022,0 3.661,-1.6387 3.661,-3.6609 0,-2.0204 -1.639,-3.6594 -3.661,-3.6594 -2.021,0 -3.661,1.639 -3.661,3.6594 l 0,0" /><path
       inkscape:connector-curvature="0"
       id="path64"
       style="fill:#5db446;fill-opacity:1;fill-rule:nonzero;stroke:none"
       d="m 171.579,66.0434 c 0,2.0222 1.639,3.6609 3.66,3.6609 2.021,0 3.66,-1.6387 3.66,-3.6609 0,-2.0204 -1.639,-3.6594 -3.66,-3.6594 -2.021,0 -3.66,1.639 -3.66,3.6594 l 0,0" /><path
       inkscape:connector-curvature="0"
       id="path66"
       style="fill:#5db446;fill-opacity:1;fill-rule:nonzero;stroke:none"
       d="m 206.527,56.2207 c 0,2.0219 1.639,3.6602 3.66,3.6602 2.021,0 3.66,-1.6383 3.66,-3.6602 0,-2.0211 -1.639,-3.6602 -3.66,-3.6602 -2.021,0 -3.66,1.6391 -3.66,3.6602 l 0,0" /><path
       inkscape:connector-curvature="0"
       id="path68"
       style="fill:#5db446;fill-opacity:1;fill-rule:nonzero;stroke:none"
       d="m 224,56.2207 c 0,2.0219 1.639,3.6602 3.661,3.6602 2.022,0 3.66,-1.6383 3.66,-3.6602 0,-2.0211 -1.638,-3.6602 -3.66,-3.6602 -2.022,0 -3.661,1.6391 -3.661,3.6602 l 0,0" /><path
       inkscape:connector-curvature="0"
       id="path70"
       style="fill:#5db446;fill-opacity:1;fill-rule:nonzero;stroke:none"
       d="m 189.052,56.2207 c 0,2.0219 1.64,3.6602 3.661,3.6602 2.022,0 3.661,-1.6383 3.661,-3.6602 0,-2.0211 -1.639,-3.6602 -3.661,-3.6602 -2.021,0 -3.661,1.6391 -3.661,3.6602 l 0,0" /><path
       inkscape:connector-curvature="0"
       id="path72"
       style="fill:#5db446;fill-opacity:1;fill-rule:nonzero;stroke:none"
       d="m 171.579,56.2207 c 0,2.0219 1.639,3.6602 3.66,3.6602 2.021,0 3.66,-1.6383 3.66,-3.6602 0,-2.0211 -1.639,-3.6602 -3.66,-3.6602 -2.021,0 -3.66,1.6391 -3.66,3.6602 l 0,0" /><path
       inkscape:connector-curvature="0"
       id="path74"
       style="fill:#5db446;fill-opacity:1;fill-rule:nonzero;stroke:none"
       d="m 206.527,46.3965 c 0,2.0219 1.639,3.6609 3.66,3.6609 2.021,0 3.66,-1.639 3.66,-3.6609 0,-2.0211 -1.639,-3.6602 -3.66,-3.6602 -2.021,0 -3.66,1.6391 -3.66,3.6602 l 0,0" /><path
       inkscape:connector-curvature="0"
       id="path76"
       style="fill:#5db446;fill-opacity:1;fill-rule:nonzero;stroke:none"
       d="m 224,46.3965 c 0,2.0219 1.639,3.6609 3.661,3.6609 2.022,0 3.66,-1.639 3.66,-3.6609 0,-2.0211 -1.638,-3.6602 -3.66,-3.6602 -2.022,0 -3.661,1.6391 -3.661,3.6602 l 0,0" /><path
       inkscape:connector-curvature="0"
       id="path78"
       style="fill:#5db446;fill-opacity:1;fill-rule:nonzero;stroke:none"
       d="m 189.052,46.3965 c 0,2.0219 1.64,3.6609 3.661,3.6609 2.022,0 3.661,-1.639 3.661,-3.6609 0,-2.0211 -1.639,-3.6602 -3.661,-3.6602 -2.021,0 -3.661,1.6391 -3.661,3.6602 l 0,0" /><path
       inkscape:connector-curvature="0"
       id="path80"
       style="fill:#5db446;fill-opacity:1;fill-rule:nonzero;stroke:none"
       d="m 171.579,46.3965 c 0,2.0219 1.639,3.6609 3.66,3.6609 2.021,0 3.66,-1.639 3.66,-3.6609 0,-2.0211 -1.639,-3.6602 -3.66,-3.6602 -2.021,0 -3.66,1.6391 -3.66,3.6602 l 0,0" /><path
       inkscape:connector-curvature="0"
       id="path82"
       style="fill:#5db446;fill-opacity:1;fill-rule:nonzero;stroke:none"
       d="m 206.527,36.5734 c 0,2.0215 1.639,3.6602 3.66,3.6602 2.021,0 3.66,-1.6387 3.66,-3.6602 0,-2.0214 -1.639,-3.6597 -3.66,-3.6597 -2.021,0 -3.66,1.6383 -3.66,3.6597 l 0,0" /><path
       inkscape:connector-curvature="0"
       id="path84"
       style="fill:#5db446;fill-opacity:1;fill-rule:nonzero;stroke:none"
       d="m 224,36.5734 c 0,2.0215 1.639,3.6602 3.661,3.6602 2.022,0 3.66,-1.6387 3.66,-3.6602 0,-2.0214 -1.638,-3.6597 -3.66,-3.6597 -2.022,0 -3.661,1.6383 -3.661,3.6597 l 0,0" /><path
       inkscape:connector-curvature="0"
       id="path86"
       style="fill:#5db446;fill-opacity:1;fill-rule:nonzero;stroke:none"
       d="m 189.052,36.5734 c 0,2.0215 1.64,3.6602 3.661,3.6602 2.022,0 3.661,-1.6387 3.661,-3.6602 0,-2.0214 -1.639,-3.6597 -3.661,-3.6597 -2.021,0 -3.661,1.6383 -3.661,3.6597 l 0,0" /><path
       inkscape:connector-curvature="0"
       id="path88"
       style="fill:#5db446;fill-opacity:1;fill-rule:nonzero;stroke:none"
       d="m 171.579,36.5734 c 0,2.0215 1.639,3.6602 3.66,3.6602 2.021,0 3.66,-1.6387 3.66,-3.6602 0,-2.0214 -1.639,-3.6597 -3.66,-3.6597 -2.021,0 -3.66,1.6383 -3.66,3.6597 l 0,0" /><path
       inkscape:connector-curvature="0"
       id="path90"
       style="fill:#5db446;fill-opacity:1;fill-rule:nonzero;stroke:none"
       d="m 206.527,26.7496 c 0,2.0219 1.639,3.6609 3.66,3.6609 2.021,0 3.66,-1.639 3.66,-3.6609 0,-2.0211 -1.639,-3.6601 -3.66,-3.6601 -2.021,0 -3.66,1.639 -3.66,3.6601 l 0,0" /><path
       inkscape:connector-curvature="0"
       id="path92"
       style="fill:#5db446;fill-opacity:1;fill-rule:nonzero;stroke:none"
       d="m 224,26.7496 c 0,2.0219 1.639,3.6609 3.661,3.6609 2.022,0 3.66,-1.639 3.66,-3.6609 0,-2.0211 -1.638,-3.6601 -3.66,-3.6601 -2.022,0 -3.661,1.639 -3.661,3.6601 l 0,0" /><path
       inkscape:connector-curvature="0"
       id="path94"
       style="fill:#5db446;fill-opacity:1;fill-rule:nonzero;stroke:none"
       d="m 189.052,26.7496 c 0,2.0219 1.64,3.6609 3.661,3.6609 2.022,0 3.661,-1.639 3.661,-3.6609 0,-2.0211 -1.639,-3.6601 -3.661,-3.6601 -2.021,0 -3.661,1.639 -3.661,3.6601 l 0,0" /><path
       inkscape:connector-curvature="0"
       id="path96"
       style="fill:#5db446;fill-opacity:1;fill-rule:nonzero;stroke:none"
       d="m 171.579,26.7496 c 0,2.0219 1.639,3.6609 3.66,3.6609 2.021,0 3.66,-1.639 3.66,-3.6609 0,-2.0211 -1.639,-3.6601 -3.66,-3.6601 -2.021,0 -3.66,1.639 -3.66,3.6601 l 0,0" /><path
       inkscape:connector-curvature="0"
       id="path98"
       style="fill:#5db446;fill-opacity:1;fill-rule:nonzero;stroke:none"
       d="m 197.79,70.9563 c 0,2.0214 1.639,3.6597 3.66,3.6597 2.022,0 3.66,-1.6383 3.66,-3.6597 0,-2.0223 -1.638,-3.6598 -3.66,-3.6598 -2.021,0 -3.66,1.6375 -3.66,3.6598 l 0,0" /><path
       inkscape:connector-curvature="0"
       id="path100"
       style="fill:#5db446;fill-opacity:1;fill-rule:nonzero;stroke:none"
       d="m 215.264,70.9563 c 0,2.0214 1.639,3.6597 3.66,3.6597 2.022,0 3.66,-1.6383 3.66,-3.6597 0,-2.0223 -1.638,-3.6614 -3.66,-3.6614 -2.021,0 -3.66,1.6391 -3.66,3.6614 l 0,0" /><path
       inkscape:connector-curvature="0"
       id="path102"
       style="fill:#5db446;fill-opacity:1;fill-rule:nonzero;stroke:none"
       d="m 232.738,70.9563 c 0,2.0207 1.638,3.6597 3.66,3.6597 2.021,0 3.66,-1.639 3.66,-3.6597 0,-2.0223 -1.639,-3.6614 -3.66,-3.6614 -2.022,0 -3.66,1.6391 -3.66,3.6614 l 0,0" /><path
       inkscape:connector-curvature="0"
       id="path104"
       style="fill:#5db446;fill-opacity:1;fill-rule:nonzero;stroke:none"
       d="m 180.316,70.9563 c 0,2.0214 1.639,3.6597 3.66,3.6597 2.022,0 3.661,-1.6383 3.661,-3.6597 0,-2.0223 -1.639,-3.6614 -3.661,-3.6614 -2.021,0 -3.66,1.6391 -3.66,3.6614 l 0,0" /><path
       inkscape:connector-curvature="0"
       id="path106"
       style="fill:#5db446;fill-opacity:1;fill-rule:nonzero;stroke:none"
       d="m 162.842,70.9563 c 0,2.0207 1.639,3.6597 3.66,3.6597 2.022,0 3.661,-1.639 3.661,-3.6597 0,-2.0223 -1.639,-3.6614 -3.661,-3.6614 -2.021,0 -3.66,1.6391 -3.66,3.6614 l 0,0" /><path
       inkscape:connector-curvature="0"
       id="path108"
       style="fill:#5db446;fill-opacity:1;fill-rule:nonzero;stroke:none"
       d="m 197.79,61.1324 c 0,2.0219 1.639,3.6598 3.66,3.6598 2.022,0 3.66,-1.6379 3.66,-3.6598 0,-2.0219 -1.638,-3.6601 -3.66,-3.6601 -2.021,0 -3.66,1.6382 -3.66,3.6601 l 0,0" /><path
       inkscape:connector-curvature="0"
       id="path110"
       style="fill:#5db446;fill-opacity:1;fill-rule:nonzero;stroke:none"
       d="m 215.264,61.1324 c 0,2.0219 1.639,3.6598 3.66,3.6598 2.022,0 3.66,-1.6379 3.66,-3.6598 0,-2.0219 -1.638,-3.6601 -3.66,-3.6601 -2.021,0 -3.66,1.6382 -3.66,3.6601 l 0,0" /><path
       inkscape:connector-curvature="0"
       id="path112"
       style="fill:#5db446;fill-opacity:1;fill-rule:nonzero;stroke:none"
       d="m 232.738,61.1324 c 0,2.0207 1.638,3.6598 3.66,3.6598 2.021,0 3.66,-1.6391 3.66,-3.6598 0,-2.0219 -1.639,-3.6601 -3.66,-3.6601 -2.022,0 -3.66,1.6382 -3.66,3.6601 l 0,0" /><path
       inkscape:connector-curvature="0"
       id="path114"
       style="fill:#5db446;fill-opacity:1;fill-rule:nonzero;stroke:none"
       d="m 180.316,61.1324 c 0,2.0219 1.639,3.6598 3.66,3.6598 2.022,0 3.661,-1.6379 3.661,-3.6598 0,-2.0219 -1.639,-3.6601 -3.661,-3.6601 -2.021,0 -3.66,1.6382 -3.66,3.6601 l 0,0" /><path
       inkscape:connector-curvature="0"
       id="path116"
       style="fill:#5db446;fill-opacity:1;fill-rule:nonzero;stroke:none"
       d="m 162.842,61.1324 c 0,2.0207 1.639,3.6598 3.66,3.6598 2.022,0 3.661,-1.6391 3.661,-3.6598 0,-2.0219 -1.639,-3.6601 -3.661,-3.6601 -2.021,0 -3.66,1.6382 -3.66,3.6601 l 0,0" /><path
       inkscape:connector-curvature="0"
       id="path118"
       style="fill:#5db446;fill-opacity:1;fill-rule:nonzero;stroke:none"
       d="m 197.79,51.309 c 0,2.0223 1.639,3.6594 3.66,3.6594 2.022,0 3.66,-1.6371 3.66,-3.6594 0,-2.0219 -1.638,-3.661 -3.66,-3.661 -2.021,0 -3.66,1.6391 -3.66,3.661 l 0,0" /><path
       inkscape:connector-curvature="0"
       id="path120"
       style="fill:#5db446;fill-opacity:1;fill-rule:nonzero;stroke:none"
       d="m 215.264,51.309 c 0,2.0223 1.639,3.6594 3.66,3.6594 2.022,0 3.66,-1.6371 3.66,-3.6594 0,-2.0219 -1.638,-3.661 -3.66,-3.661 -2.021,0 -3.66,1.6391 -3.66,3.661 l 0,0" /><path
       inkscape:connector-curvature="0"
       id="path122"
       style="fill:#5db446;fill-opacity:1;fill-rule:nonzero;stroke:none"
       d="m 232.738,51.309 c 0,2.0223 1.638,3.6594 3.66,3.6594 2.021,0 3.66,-1.6371 3.66,-3.6594 0,-2.0219 -1.639,-3.661 -3.66,-3.661 -2.022,0 -3.66,1.6391 -3.66,3.661 l 0,0" /><path
       inkscape:connector-curvature="0"
       id="path124"
       style="fill:#5db446;fill-opacity:1;fill-rule:nonzero;stroke:none"
       d="m 180.316,51.309 c 0,2.0223 1.639,3.6594 3.66,3.6594 2.022,0 3.661,-1.6371 3.661,-3.6594 0,-2.0219 -1.639,-3.661 -3.661,-3.661 -2.021,0 -3.66,1.6391 -3.66,3.661 l 0,0" /><path
       inkscape:connector-curvature="0"
       id="path126"
       style="fill:#5db446;fill-opacity:1;fill-rule:nonzero;stroke:none"
       d="m 162.842,51.309 c 0,2.0223 1.639,3.6594 3.66,3.6594 2.022,0 3.661,-1.6371 3.661,-3.6594 0,-2.0219 -1.639,-3.661 -3.661,-3.661 -2.021,0 -3.66,1.6391 -3.66,3.661 l 0,0" /><path
       inkscape:connector-curvature="0"
       id="path128"
       style="fill:#5db446;fill-opacity:1;fill-rule:nonzero;stroke:none"
       d="m 197.79,41.4848 c 0,2.0211 1.639,3.6601 3.66,3.6601 2.022,0 3.66,-1.639 3.66,-3.6601 0,-2.0207 -1.638,-3.6602 -3.66,-3.6602 -2.021,0 -3.66,1.6395 -3.66,3.6602 l 0,0" /><path
       inkscape:connector-curvature="0"
       id="path130"
       style="fill:#5db446;fill-opacity:1;fill-rule:nonzero;stroke:none"
       d="m 215.264,41.4848 c 0,2.0211 1.639,3.6601 3.66,3.6601 2.022,0 3.66,-1.639 3.66,-3.6601 0,-2.0207 -1.638,-3.6602 -3.66,-3.6602 -2.021,0 -3.66,1.6395 -3.66,3.6602 l 0,0" /><path
       inkscape:connector-curvature="0"
       id="path132"
       style="fill:#5db446;fill-opacity:1;fill-rule:nonzero;stroke:none"
       d="m 232.738,41.4848 c 0,2.0211 1.638,3.6601 3.66,3.6601 2.021,0 3.66,-1.639 3.66,-3.6601 0,-2.0207 -1.639,-3.6602 -3.66,-3.6602 -2.022,0 -3.66,1.6395 -3.66,3.6602 l 0,0" /><path
       inkscape:connector-curvature="0"
       id="path134"
       style="fill:#e3182c;fill-opacity:1;fill-rule:nonzero;stroke:none"
       d="m 180.316,41.4848 c 0,2.0211 1.639,3.6601 3.66,3.6601 2.022,0 3.661,-1.639 3.661,-3.6601 0,-2.0207 -1.639,-3.6602 -3.661,-3.6602 -2.021,0 -3.66,1.6395 -3.66,3.6602 l 0,0" /><path
       inkscape:connector-curvature="0"
       id="path136"
       style="fill:#5db446;fill-opacity:1;fill-rule:nonzero;stroke:none"
       d="m 162.842,41.4848 c 0,2.0211 1.639,3.6601 3.66,3.6601 2.022,0 3.661,-1.639 3.661,-3.6601 0,-2.0207 -1.639,-3.6602 -3.661,-3.6602 -2.021,0 -3.66,1.6395 -3.66,3.6602 l 0,0" /><path
       inkscape:connector-curvature="0"
       id="path138"
       style="fill:#5db446;fill-opacity:1;fill-rule:nonzero;stroke:none"
       d="m 197.79,31.6621 c 0,2.0203 1.639,3.6594 3.66,3.6594 2.022,0 3.66,-1.6391 3.66,-3.6594 0,-2.0219 -1.638,-3.6609 -3.66,-3.6609 -2.021,0 -3.66,1.639 -3.66,3.6609 l 0,0" /><path
       inkscape:connector-curvature="0"
       id="path140"
       style="fill:#5db446;fill-opacity:1;fill-rule:nonzero;stroke:none"
       d="m 215.264,31.6621 c 0,2.0203 1.639,3.6594 3.66,3.6594 2.022,0 3.66,-1.6391 3.66,-3.6594 0,-2.0219 -1.638,-3.6609 -3.66,-3.6609 -2.021,0 -3.66,1.639 -3.66,3.6609 l 0,0" /><path
       inkscape:connector-curvature="0"
       id="path142"
       style="fill:#5db446;fill-opacity:1;fill-rule:nonzero;stroke:none"
       d="m 232.738,31.6621 c 0,2.0203 1.638,3.6594 3.66,3.6594 2.021,0 3.66,-1.6391 3.66,-3.6594 0,-2.0219 -1.639,-3.6609 -3.66,-3.6609 -2.022,0 -3.66,1.639 -3.66,3.6609 l 0,0" /><path
       inkscape:connector-curvature="0"
       id="path144"
       style="fill:#5db446;fill-opacity:1;fill-rule:nonzero;stroke:none"
       d="m 180.316,31.6621 c 0,2.0203 1.639,3.6594 3.66,3.6594 2.022,0 3.661,-1.6391 3.661,-3.6594 0,-2.0219 -1.639,-3.6609 -3.661,-3.6609 -2.021,0 -3.66,1.639 -3.66,3.6609 l 0,0" /><path
       inkscape:connector-curvature="0"
       id="path146"
       style="fill:#5db446;fill-opacity:1;fill-rule:nonzero;stroke:none"
       d="m 162.842,31.6621 c 0,2.0203 1.639,3.6594 3.66,3.6594 2.022,0 3.661,-1.6391 3.661,-3.6594 0,-2.0219 -1.639,-3.6609 -3.661,-3.6609 -2.021,0 -3.66,1.639 -3.66,3.6609 l 0,0" /><path
       inkscape:connector-curvature="0"
       id="path148"
       style="fill:#ffffff;fill-opacity:1;fill-rule:nonzero;stroke:none"
       d="m 59.4313,40.1637 -17.5559,0 0,9.8218 15.8957,0 0,3.7118 -15.8957,0 0,8.8515 17.125,0 0,3.5711 -20.7293,0 0,-29.5265 21.1602,0 0,3.5703" /><path
       inkscape:connector-curvature="0"
       id="path150"
       style="fill:#ffffff;fill-opacity:1;fill-rule:nonzero;stroke:none"
       d="m 93.4301,36.5934 0,29.5265 -5.25,0 c 0,0 -1.1903,-2.9859 -1.3086,-3.3422 -4.241,-12.764 -7.077,-21.2953 -7.077,-21.2953 l -0.0832,0 c 0,0 -2.8496,8.5313 -7.1121,21.2953 -0.1203,0.3594 -1.3156,3.3422 -1.3156,3.3422 l -5.291,0 0,-29.5265 3.6222,0 0,17.4609 c 0,0.8719 -0.0832,4.3629 -0.0832,7.1031 l 0.0832,0 8.1036,-24.564 3.9851,0 8.1055,24.605 0.082,0 c 0,-2.7812 -0.082,-24.605 -0.082,-24.605 l 3.6211,0 0,0" /><path
       inkscape:connector-curvature="0"
       id="path152"
       style="fill:#ffffff;fill-opacity:1;fill-rule:evenodd;stroke:none"
       d="m 104.102,50.3605 8.069,0 c 3.28,0 7.115,-0.8312 7.115,-5.0238 0,-3.3215 -2.257,-5.4387 -6.45,-5.4387 l -8.734,0 0,10.4625 z m -3.604,-13.7671 12.545,0 c 6.601,0 9.707,3.8863 9.707,8.6601 0,5.107 -3.023,6.4762 -4.975,7.2653 3.28,1.5355 3.563,4.2761 3.563,6.2261 0,4.0688 -2.442,7.375 -8.005,7.375 l -12.835,0 0,-29.5265 z m 3.604,26.2203 7.445,0 c 4.485,0 6.328,-1.5774 6.328,-4.3586 0,-3.6531 -2.507,-4.6758 -6.368,-4.6758 l -7.405,0 0,9.0344" /><path
       inkscape:connector-curvature="0"
       id="path154"
       style="fill:#ffffff;fill-opacity:1;fill-rule:nonzero;stroke:none"
       d="m 132.504,66.1199 -3.886,0 0,-29.5265 19.414,0 0,3.7109 -15.528,0 0,25.8156" /><path
       style="fill:none;stroke:#ed1c24;stroke-width:2.79999995;stroke-linecap:butt;stroke-linejoin:miter;stroke-miterlimit:4;stroke-opacity:1;stroke-dasharray:none"
       d="M 46.825,26.925 C 39.7734,26.925 34.05,21.2032 34.05,14.15 34.05,7.09848 39.7734,1.4 46.825,1.4 53.8777,1.4 59.6,7.09848 59.6,14.15 c 0,7.0532 -5.7223,12.775 -12.775,12.775 z"
       id="path156"
       inkscape:connector-curvature="0" /><path
       inkscape:connector-curvature="0"
       id="path158"
       style="fill:#e3182c;fill-opacity:1;fill-rule:nonzero;stroke:none"
       d="m 1.47305,12.5852 20.19725,0 0,25.3519 -0.1062,0 L 1.47305,12.5852 z m 20.19725,-1.0739 -21.2703,0 0,1.4492 20.948,26.3735 1.3965,0 0,-26.7488 6.4082,0 0,-1.0739 -6.4082,0 0,-9.99138 -1.0742,0 0,9.99138" /><path
       inkscape:connector-curvature="0"
       id="path160"
       style="fill:none;stroke:#e3182c;stroke-width:1.7256;stroke-linecap:butt;stroke-linejoin:miter;stroke-miterlimit:4;stroke-opacity:1;stroke-dasharray:none"
       d="m 1.47305,12.5852 20.19725,0 0,25.3519 -0.1062,0 L 1.47305,12.5852 z m 20.19725,-1.0739 -21.2703,0 0,1.4492 20.948,26.3735 1.3965,0 0,-26.7488 6.4082,0 0,-1.0739 -6.4082,0 0,-9.99138 -1.0742,0 0,9.99138 z" /><g
       transform="scale(0.9999955,-1.0000045)"
       style="font-size:20.78051186px;fill:#ffffff"
       id="text164"><path
         d="m 75.59305,-11.607153 0,-5.004388 -4.553106,-6.809513 1.901829,0 2.328934,3.561899 c 0.429787,0.666185 0.83003,1.332362 1.20073,1.998532 0.354573,-0.617819 0.784364,-1.313544 1.289376,-2.087176 l 2.288641,-3.473255 1.821242,0 -4.714278,6.809513 0,5.004388 z"
         style="font-size:16.50400352px;font-variant:normal;writing-mode:lr-tb;fill:#ffffff;fill-opacity:1;fill-rule:nonzero;stroke:none;font-family:HelveticaNeueLTPro;-inkscape-font-specification:HelveticaNeueLTPro-LtEx"
         id="path3835"
         inkscape:connector-curvature="0" /><path
         d="m 84.295712,-11.607153 0,-11.813901 8.542111,0 0,1.394137 -6.978744,0 0,3.618309 6.535521,0 0,1.386079 -6.535521,0 0,4.021239 7.252736,0 0,1.394137 z"
         style="font-size:16.50400352px;font-variant:normal;writing-mode:lr-tb;fill:#ffffff;fill-opacity:1;fill-rule:nonzero;stroke:none;font-family:HelveticaNeueLTPro;-inkscape-font-specification:HelveticaNeueLTPro-LtEx"
         id="path3837"
         inkscape:connector-curvature="0" /><path
         d="m 94.947771,-11.607153 4.536989,-11.813901 1.68425,0 4.83515,11.813901 -1.78095,0 -1.37802,-3.578016 -4.939915,0 -1.297433,3.578016 z m 3.408786,-4.851274 4.005123,0 -1.23297,-3.27179 c -0.37607,-0.993884 -0.65543,-1.810488 -0.83809,-2.449813 -0.15043,0.757518 -0.362642,1.509652 -0.636629,2.256407 z"
         style="font-size:16.50400352px;font-variant:normal;writing-mode:lr-tb;fill:#ffffff;fill-opacity:1;fill-rule:nonzero;stroke:none;font-family:HelveticaNeueLTPro;-inkscape-font-specification:HelveticaNeueLTPro-LtEx"
         id="path3839"
         inkscape:connector-curvature="0" /><path
         d="m 108.8616,-11.607153 0,-11.813901 5.23808,0 c 1.05299,1.2e-5 1.85347,0.106117 2.40147,0.318315 0.54797,0.212221 0.98582,0.586945 1.31355,1.124174 0.3277,0.537249 0.49156,1.130898 0.49157,1.780949 -1e-5,0.838102 -0.27132,1.544571 -0.81392,2.119411 -0.54262,0.574852 -1.38071,0.940175 -2.51428,1.095969 0.41367,0.198784 0.72795,0.394876 0.94286,0.588277 0.45664,0.419052 0.88912,0.94286 1.29743,1.571426 l 2.05494,3.21538 -1.96629,0 -1.56337,-2.457872 c -0.45666,-0.709153 -0.83273,-1.251764 -1.12821,-1.627836 -0.29548,-0.376063 -0.56007,-0.63931 -0.79377,-0.789742 -0.2337,-0.150422 -0.47143,-0.255184 -0.71318,-0.314285 -0.1773,-0.0376 -0.46741,-0.05641 -0.87033,-0.05641 l -1.81319,0 0,5.246146 z m 1.56336,-6.59999 3.36044,0 c 0.71452,7e-6 1.27325,-0.07386 1.67619,-0.221611 0.40292,-0.147734 0.70914,-0.384119 0.91868,-0.709156 0.20951,-0.325023 0.31427,-0.678257 0.31428,-1.059706 -1e-5,-0.55872 -0.20282,-1.018059 -0.60842,-1.37802 -0.40563,-0.35994 -1.04628,-0.539915 -1.92198,-0.539925 l -3.73919,0 z"
         style="font-size:16.50400352px;font-variant:normal;writing-mode:lr-tb;fill:#ffffff;fill-opacity:1;fill-rule:nonzero;stroke:none;font-family:HelveticaNeueLTPro;-inkscape-font-specification:HelveticaNeueLTPro-LtEx"
         id="path3841"
         inkscape:connector-curvature="0" /><path
         d="m 121.21147,-15.402751 1.47472,-0.128938 c 0.0698,0.590967 0.23235,1.075825 0.48755,1.454577 0.25518,0.378756 0.6514,0.684982 1.18864,0.918679 0.53723,0.233701 1.14163,0.350551 1.81318,0.350549 0.59633,2e-6 1.12283,-0.08864 1.57949,-0.265933 0.45664,-0.177288 0.79645,-0.420388 1.01941,-0.729303 0.22295,-0.308911 0.33442,-0.646028 0.33443,-1.011354 -1e-5,-0.370692 -0.10745,-0.694378 -0.32234,-0.971061 -0.21491,-0.276674 -0.56948,-0.50903 -1.06374,-0.697068 -0.31697,-0.12356 -1.01807,-0.315623 -2.10329,-0.57619 -1.08523,-0.260555 -1.84542,-0.506342 -2.28058,-0.737361 -0.56411,-0.295476 -0.9845,-0.662141 -1.26117,-1.099999 -0.27668,-0.437842 -0.41502,-0.928073 -0.41502,-1.470693 0,-0.596327 0.16923,-1.153713 0.50769,-1.672159 0.33846,-0.518425 0.83272,-0.911953 1.48278,-1.180584 0.65006,-0.268608 1.37265,-0.402918 2.16776,-0.40293 0.8757,1.2e-5 1.64798,0.141038 2.31685,0.423076 0.66886,0.282063 1.18326,0.69708 1.54322,1.245053 0.35994,0.547995 0.55335,1.168506 0.58022,1.861536 l -1.4989,0.11282 c -0.0806,-0.746754 -0.35324,-1.310855 -0.81795,-1.692305 -0.46471,-0.381429 -1.15104,-0.572149 -2.05897,-0.57216 -0.94554,1.1e-5 -1.63455,0.17327 -2.06703,0.519779 -0.43248,0.34653 -0.64872,0.764233 -0.64871,1.253112 -10e-6,0.424428 0.15311,0.773633 0.45934,1.047617 0.30085,0.274 1.08656,0.554708 2.35714,0.842124 1.27056,0.28743 2.14223,0.538589 2.61501,0.753478 0.68766,0.316978 1.19535,0.718564 1.52307,1.20476 0.32771,0.486207 0.49157,1.046279 0.49158,1.680218 -1e-5,0.628573 -0.17999,1.220879 -0.53993,1.77692 -0.35996,0.556044 -0.87705,0.988521 -1.55128,1.297434 -0.67424,0.308912 -1.43309,0.463369 -2.27655,0.463369 -1.06911,0 -1.96496,-0.1558 -2.68754,-0.467399 -0.72259,-0.311598 -1.28938,-0.780339 -1.70036,-1.406224 -0.41099,-0.625882 -0.62723,-1.333695 -0.64872,-2.12344 z"
         style="font-size:16.50400352px;font-variant:normal;writing-mode:lr-tb;fill:#ffffff;fill-opacity:1;fill-rule:nonzero;stroke:none;font-family:HelveticaNeueLTPro;-inkscape-font-specification:HelveticaNeueLTPro-LtEx"
         id="path3843"
         inkscape:connector-curvature="0" /></g><g
       id="g168" /></g></svg>