<?xml version="1.0" encoding="UTF-8" standalone="no"?>
<!-- Created with Inkscape (http://www.inkscape.org/) -->

<svg
   xmlns:dc="http://purl.org/dc/elements/1.1/"
   xmlns:cc="http://creativecommons.org/ns#"
   xmlns:rdf="http://www.w3.org/1999/02/22-rdf-syntax-ns#"
   xmlns:svg="http://www.w3.org/2000/svg"
   xmlns="http://www.w3.org/2000/svg"
   xmlns:sodipodi="http://sodipodi.sourceforge.net/DTD/sodipodi-0.dtd"
   xmlns:inkscape="http://www.inkscape.org/namespaces/inkscape"
   id="svg3085"
   version="1.1"
   inkscape:version="0.48.4 r9939"
   width="1488.75"
   height="635"
   xml:space="preserve"
   sodipodi:docname="4c_logo_2006_win.svg"><metadata
     id="metadata3091"><rdf:RDF><cc:Work
         rdf:about=""><dc:format>image/svg+xml</dc:format><dc:type
           rdf:resource="http://purl.org/dc/dcmitype/StillImage" /><dc:title></dc:title></cc:Work></rdf:RDF></metadata><defs
     id="defs3089" /><sodipodi:namedview
     pagecolor="#ffffff"
     bordercolor="#666666"
     borderopacity="1"
     objecttolerance="10"
     gridtolerance="10"
     guidetolerance="10"
     inkscape:pageopacity="0"
     inkscape:pageshadow="2"
     inkscape:window-width="1600"
     inkscape:window-height="837"
     id="namedview3087"
     showgrid="false"
     inkscape:zoom="0.61177582"
     inkscape:cx="823.83963"
     inkscape:cy="410.47329"
     inkscape:window-x="-8"
     inkscape:window-y="-8"
     inkscape:window-maximized="1"
     inkscape:current-layer="g3093" /><g
     id="g3093"
     inkscape:groupmode="layer"
     inkscape:label="ink_ext_XXXXXX"
     transform="matrix(1.25,0,0,-1.25,0,635)"><g
       id="g3117"
       transform="matrix(0.86085463,0,0,0.86085463,82.930176,35.313954)"><path
         d="m 942.311,485.912 c 0,11.942 9.68,21.622 21.621,21.622 11.942,0 21.622,-9.68 21.622,-21.622 0,-11.942 -9.68,-21.622 -21.622,-21.622 -11.941,0 -21.621,9.68 -21.621,21.622"
         style="fill:#5db446;fill-opacity:1;fill-rule:nonzero;stroke:none"
         id="path3097"
         inkscape:connector-curvature="0" /><path
         d="m 942.311,485.912 c 0,11.942 9.68,21.622 21.621,21.622 11.942,0 21.622,-9.68 21.622,-21.622 0,-11.942 -9.68,-21.622 -21.622,-21.622 -11.941,0 -21.621,9.68 -21.621,21.622"
         style="fill:#5db446;fill-opacity:1;fill-rule:nonzero;stroke:none"
         id="path3099"
         inkscape:connector-curvature="0" /><path
         d="m 942.311,21.6715 c 0,11.9414 9.68,21.6219 21.621,21.6219 11.942,0 21.622,-9.6805 21.622,-21.6219 0,-11.94181 -9.68,-21.6218906 -21.622,-21.6218906 -11.941,0 -21.621,9.6800806 -21.621,21.6218906"
         style="fill:#5db446;fill-opacity:1;fill-rule:nonzero;stroke:none"
         id="path3101"
         inkscape:connector-curvature="0" /><path
         d="m 942.311,21.6715 c 0,11.9414 9.68,21.6219 21.621,21.6219 11.942,0 21.622,-9.6805 21.622,-21.6219 0,-11.94181 -9.68,-21.6218906 -21.622,-21.6218906 -11.941,0 -21.621,9.6800806 -21.621,21.6218906"
         style="fill:#5db446;fill-opacity:1;fill-rule:nonzero;stroke:none"
         id="path3103"
         inkscape:connector-curvature="0" /><path
         d="m 993.922,456.897 c 0,11.941 9.678,21.622 21.618,21.622 11.95,0 21.63,-9.681 21.63,-21.622 0,-11.942 -9.68,-21.622 -21.63,-21.622 -11.94,0 -21.618,9.68 -21.618,21.622"
         style="fill:#5db446;fill-opacity:1;fill-rule:nonzero;stroke:none"
         id="path3105"
         inkscape:connector-curvature="0" /><path
         d="m 890.699,456.897 c 0,11.941 9.68,21.622 21.622,21.622 11.942,0 21.622,-9.681 21.622,-21.622 0,-11.942 -9.68,-21.622 -21.622,-21.622 -11.942,0 -21.622,9.68 -21.622,21.622"
         style="fill:#5db446;fill-opacity:1;fill-rule:nonzero;stroke:none"
         id="path3107"
         inkscape:connector-curvature="0" /><path
         d="m 993.922,50.6863 c 0,11.9418 9.678,21.6223 21.618,21.6223 11.95,0 21.63,-9.6805 21.63,-21.6223 0,-11.9414 -9.68,-21.6218 -21.63,-21.6218 -11.94,0 -21.618,9.6804 -21.618,21.6218"
         style="fill:#5db446;fill-opacity:1;fill-rule:nonzero;stroke:none"
         id="path3109"
         inkscape:connector-curvature="0" /><path
         d="m 890.699,50.6863 c 0,11.9418 9.68,21.6223 21.622,21.6223 11.942,0 21.622,-9.6805 21.622,-21.6223 0,-11.9414 -9.68,-21.6218 -21.622,-21.6218 -11.942,0 -21.622,9.6804 -21.622,21.6218"
         style="fill:#5db446;fill-opacity:1;fill-rule:nonzero;stroke:none"
         id="path3111"
         inkscape:connector-curvature="0" /><path
         d="m 942.311,427.882 c 0,11.941 9.68,21.622 21.621,21.622 11.942,0 21.622,-9.681 21.622,-21.622 0,-11.941 -9.68,-21.622 -21.622,-21.622 -11.941,0 -21.621,9.681 -21.621,21.622"
         style="fill:#5db446;fill-opacity:1;fill-rule:nonzero;stroke:none"
         id="path3113"
         inkscape:connector-curvature="0" /><path
         d="m 1045.53,427.882 c 0,11.941 9.68,21.622 21.62,21.622 11.95,0 21.63,-9.681 21.63,-21.622 0,-11.941 -9.68,-21.622 -21.63,-21.622 -11.94,0 -21.62,9.681 -21.62,21.622"
         style="fill:#5db446;fill-opacity:1;fill-rule:nonzero;stroke:none"
         id="path3115"
         inkscape:connector-curvature="0" /><path
         d="m 839.088,427.882 c 0,11.941 9.68,21.622 21.621,21.622 11.942,0 21.622,-9.681 21.622,-21.622 0,-11.941 -9.68,-21.622 -21.622,-21.622 -11.941,0 -21.621,9.681 -21.621,21.622"
         style="fill:#5db446;fill-opacity:1;fill-rule:nonzero;stroke:none"
         id="path3117"
         inkscape:connector-curvature="0" /><path
         d="m 942.311,79.7016 c 0,11.9414 9.68,21.6214 21.621,21.6214 11.942,0 21.622,-9.68 21.622,-21.6214 0,-11.9414 -9.68,-21.6219 -21.622,-21.6219 -11.941,0 -21.621,9.6805 -21.621,21.6219"
         style="fill:#5db446;fill-opacity:1;fill-rule:nonzero;stroke:none"
         id="path3119"
         inkscape:connector-curvature="0" /><path
         d="m 1045.53,79.7016 c 0,11.9414 9.68,21.6214 21.62,21.6214 11.95,0 21.63,-9.68 21.63,-21.6214 0,-11.9414 -9.68,-21.6219 -21.63,-21.6219 -11.94,0 -21.62,9.6805 -21.62,21.6219"
         style="fill:#5db446;fill-opacity:1;fill-rule:nonzero;stroke:none"
         id="path3121"
         inkscape:connector-curvature="0" /><path
         d="m 839.088,79.7016 c 0,11.9414 9.68,21.6214 21.621,21.6214 11.942,0 21.622,-9.68 21.622,-21.6214 0,-11.9414 -9.68,-21.6219 -21.622,-21.6219 -11.941,0 -21.621,9.6805 -21.621,21.6219"
         style="fill:#5db446;fill-opacity:1;fill-rule:nonzero;stroke:none"
         id="path3123"
         inkscape:connector-curvature="0" /><path
         d="m 993.922,398.867 c 0,11.942 9.678,21.622 21.618,21.622 11.95,0 21.63,-9.68 21.63,-21.622 0,-11.942 -9.68,-21.622 -21.63,-21.622 -11.94,0 -21.618,9.68 -21.618,21.622"
         style="fill:#5db446;fill-opacity:1;fill-rule:nonzero;stroke:none"
         id="path3125"
         inkscape:connector-curvature="0" /><path
         d="m 1097.14,398.867 c 0,11.942 9.68,21.622 21.63,21.622 11.94,0 21.62,-9.68 21.62,-21.622 0,-11.942 -9.68,-21.622 -21.62,-21.622 -11.95,0 -21.63,9.68 -21.63,21.622"
         style="fill:#5db446;fill-opacity:1;fill-rule:nonzero;stroke:none"
         id="path3127"
         inkscape:connector-curvature="0" /><path
         d="m 890.699,398.867 c 0,11.942 9.68,21.622 21.622,21.622 11.942,0 21.622,-9.68 21.622,-21.622 0,-11.942 -9.68,-21.622 -21.622,-21.622 -11.942,0 -21.622,9.68 -21.622,21.622"
         style="fill:#5db446;fill-opacity:1;fill-rule:nonzero;stroke:none"
         id="path3129"
         inkscape:connector-curvature="0" /><path
         d="m 787.477,398.867 c 0,11.942 9.68,21.622 21.621,21.622 11.942,0 21.622,-9.68 21.622,-21.622 0,-11.942 -9.68,-21.622 -21.622,-21.622 -11.941,0 -21.621,9.68 -21.621,21.622"
         style="fill:#5db446;fill-opacity:1;fill-rule:nonzero;stroke:none"
         id="path3131"
         inkscape:connector-curvature="0" /><path
         d="m 993.922,340.837 c 0,11.942 9.678,21.622 21.618,21.622 11.95,0 21.63,-9.68 21.63,-21.622 0,-11.942 -9.68,-21.622 -21.63,-21.622 -11.94,0 -21.618,9.68 -21.618,21.622"
         style="fill:#5db446;fill-opacity:1;fill-rule:nonzero;stroke:none"
         id="path3133"
         inkscape:connector-curvature="0" /><path
         d="m 1097.14,340.836 c 0,11.943 9.68,21.623 21.63,21.623 11.94,0 21.62,-9.68 21.62,-21.623 0,-11.941 -9.68,-21.622 -21.62,-21.622 -11.95,0 -21.63,9.681 -21.63,21.622"
         style="fill:#5db446;fill-opacity:1;fill-rule:nonzero;stroke:none"
         id="path3135"
         inkscape:connector-curvature="0" /><path
         d="m 890.699,340.837 c 0,11.942 9.68,21.622 21.622,21.622 11.942,0 21.622,-9.68 21.622,-21.622 0,-11.942 -9.68,-21.622 -21.622,-21.622 -11.942,0 -21.622,9.68 -21.622,21.622"
         style="fill:#5db446;fill-opacity:1;fill-rule:nonzero;stroke:none"
         id="path3137"
         inkscape:connector-curvature="0" /><path
         d="m 787.477,340.836 c 0,11.943 9.68,21.623 21.621,21.623 11.942,0 21.622,-9.68 21.622,-21.623 0,-11.941 -9.68,-21.622 -21.622,-21.622 -11.941,0 -21.621,9.681 -21.621,21.622"
         style="fill:#5db446;fill-opacity:1;fill-rule:nonzero;stroke:none"
         id="path3139"
         inkscape:connector-curvature="0" /><path
         d="m 993.922,282.807 c 0,11.941 9.678,21.621 21.618,21.621 11.95,0 21.63,-9.68 21.63,-21.621 0,-11.942 -9.68,-21.622 -21.63,-21.622 -11.94,0 -21.618,9.68 -21.618,21.622"
         style="fill:#5db446;fill-opacity:1;fill-rule:nonzero;stroke:none"
         id="path3141"
         inkscape:connector-curvature="0" /><path
         d="m 1097.14,282.806 c 0,11.942 9.68,21.622 21.63,21.622 11.94,0 21.62,-9.68 21.62,-21.622 0,-11.941 -9.68,-21.622 -21.62,-21.622 -11.95,0 -21.63,9.681 -21.63,21.622"
         style="fill:#5db446;fill-opacity:1;fill-rule:nonzero;stroke:none"
         id="path3143"
         inkscape:connector-curvature="0" /><path
         d="m 890.699,282.807 c 0,11.941 9.68,21.621 21.622,21.621 11.942,0 21.622,-9.68 21.622,-21.621 0,-11.942 -9.68,-21.622 -21.622,-21.622 -11.942,0 -21.622,9.68 -21.622,21.622"
         style="fill:#5db446;fill-opacity:1;fill-rule:nonzero;stroke:none"
         id="path3145"
         inkscape:connector-curvature="0" /><path
         d="m 787.477,282.806 c 0,11.942 9.68,21.622 21.621,21.622 11.942,0 21.622,-9.68 21.622,-21.622 0,-11.941 -9.68,-21.622 -21.622,-21.622 -11.941,0 -21.621,9.681 -21.621,21.622"
         style="fill:#5db446;fill-opacity:1;fill-rule:nonzero;stroke:none"
         id="path3147"
         inkscape:connector-curvature="0" /><path
         d="m 993.922,224.777 c 0,11.941 9.678,21.621 21.618,21.621 11.95,0 21.63,-9.68 21.63,-21.621 0,-11.942 -9.68,-21.622 -21.63,-21.622 -11.94,0 -21.618,9.68 -21.618,21.622"
         style="fill:#5db446;fill-opacity:1;fill-rule:nonzero;stroke:none"
         id="path3149"
         inkscape:connector-curvature="0" /><path
         d="m 1097.14,224.776 c 0,11.942 9.68,21.622 21.63,21.622 11.94,0 21.62,-9.68 21.62,-21.622 0,-11.941 -9.68,-21.621 -21.62,-21.621 -11.95,0 -21.63,9.68 -21.63,21.621"
         style="fill:#5db446;fill-opacity:1;fill-rule:nonzero;stroke:none"
         id="path3151"
         inkscape:connector-curvature="0" /><path
         d="m 890.699,224.777 c 0,11.941 9.68,21.621 21.622,21.621 11.942,0 21.622,-9.68 21.622,-21.621 0,-11.942 -9.68,-21.622 -21.622,-21.622 -11.942,0 -21.622,9.68 -21.622,21.622"
         style="fill:#5db446;fill-opacity:1;fill-rule:nonzero;stroke:none"
         id="path3153"
         inkscape:connector-curvature="0" /><path
         d="m 787.477,224.776 c 0,11.942 9.68,21.622 21.621,21.622 11.942,0 21.622,-9.68 21.622,-21.622 0,-11.941 -9.68,-21.621 -21.622,-21.621 -11.941,0 -21.621,9.68 -21.621,21.621"
         style="fill:#5db446;fill-opacity:1;fill-rule:nonzero;stroke:none"
         id="path3155"
         inkscape:connector-curvature="0" /><path
         d="m 993.922,166.746 c 0,11.942 9.678,21.622 21.618,21.622 11.95,0 21.63,-9.68 21.63,-21.622 0,-11.941 -9.68,-21.621 -21.63,-21.621 -11.94,0 -21.618,9.68 -21.618,21.621"
         style="fill:#5db446;fill-opacity:1;fill-rule:nonzero;stroke:none"
         id="path3157"
         inkscape:connector-curvature="0" /><path
         d="m 1097.14,166.746 c 0,11.942 9.68,21.622 21.63,21.622 11.94,0 21.62,-9.68 21.62,-21.622 0,-11.941 -9.68,-21.621 -21.62,-21.621 -11.95,0 -21.63,9.68 -21.63,21.621"
         style="fill:#5db446;fill-opacity:1;fill-rule:nonzero;stroke:none"
         id="path3159"
         inkscape:connector-curvature="0" /><path
         d="m 890.699,166.746 c 0,11.942 9.68,21.622 21.622,21.622 11.942,0 21.622,-9.68 21.622,-21.622 0,-11.941 -9.68,-21.621 -21.622,-21.621 -11.942,0 -21.622,9.68 -21.622,21.621"
         style="fill:#5db446;fill-opacity:1;fill-rule:nonzero;stroke:none"
         id="path3161"
         inkscape:connector-curvature="0" /><path
         d="m 787.477,166.746 c 0,11.942 9.68,21.622 21.621,21.622 11.942,0 21.622,-9.68 21.622,-21.622 0,-11.941 -9.68,-21.621 -21.622,-21.621 -11.941,0 -21.621,9.68 -21.621,21.621"
         style="fill:#5db446;fill-opacity:1;fill-rule:nonzero;stroke:none"
         id="path3163"
         inkscape:connector-curvature="0" /><path
         d="m 993.922,108.717 c 0,11.941 9.678,21.621 21.618,21.621 11.95,0 21.63,-9.68 21.63,-21.621 0,-11.942 -9.68,-21.6225 -21.63,-21.6225 -11.94,0 -21.618,9.6805 -21.618,21.6225"
         style="fill:#5db446;fill-opacity:1;fill-rule:nonzero;stroke:none"
         id="path3165"
         inkscape:connector-curvature="0" /><path
         d="m 1097.14,108.716 c 0,11.942 9.68,21.622 21.63,21.622 11.94,0 21.62,-9.68 21.62,-21.622 0,-11.941 -9.68,-21.6215 -21.62,-21.6215 -11.95,0 -21.63,9.6805 -21.63,21.6215"
         style="fill:#5db446;fill-opacity:1;fill-rule:nonzero;stroke:none"
         id="path3167"
         inkscape:connector-curvature="0" /><path
         d="m 890.699,108.717 c 0,11.941 9.68,21.621 21.622,21.621 11.942,0 21.622,-9.68 21.622,-21.621 0,-11.942 -9.68,-21.6225 -21.622,-21.6225 -11.942,0 -21.622,9.6805 -21.622,21.6225"
         style="fill:#5db446;fill-opacity:1;fill-rule:nonzero;stroke:none"
         id="path3169"
         inkscape:connector-curvature="0" /><path
         d="m 787.477,108.716 c 0,11.942 9.68,21.622 21.621,21.622 11.942,0 21.622,-9.68 21.622,-21.622 0,-11.941 -9.68,-21.6215 -21.622,-21.6215 -11.941,0 -21.621,9.6805 -21.621,21.6215"
         style="fill:#5db446;fill-opacity:1;fill-rule:nonzero;stroke:none"
         id="path3171"
         inkscape:connector-curvature="0" /><path
         d="m 942.311,369.852 c 0,11.942 9.68,21.622 21.621,21.622 11.942,0 21.622,-9.68 21.622,-21.622 0,-11.941 -9.68,-21.621 -21.622,-21.621 -11.941,0 -21.621,9.68 -21.621,21.621"
         style="fill:#5db446;fill-opacity:1;fill-rule:nonzero;stroke:none"
         id="path3173"
         inkscape:connector-curvature="0" /><path
         d="m 1045.53,369.852 c 0,11.942 9.68,21.622 21.62,21.622 11.95,0 21.63,-9.68 21.63,-21.622 0,-11.941 -9.68,-21.622 -21.63,-21.622 -11.94,0 -21.62,9.681 -21.62,21.622"
         style="fill:#5db446;fill-opacity:1;fill-rule:nonzero;stroke:none"
         id="path3175"
         inkscape:connector-curvature="0" /><path
         d="m 1148.76,369.852 c 0,11.941 9.68,21.621 21.62,21.621 11.94,0 21.62,-9.68 21.62,-21.621 0,-11.942 -9.68,-21.622 -21.62,-21.622 -11.94,0 -21.62,9.68 -21.62,21.622"
         style="fill:#5db446;fill-opacity:1;fill-rule:nonzero;stroke:none"
         id="path3177"
         inkscape:connector-curvature="0" /><path
         d="m 839.088,369.852 c 0,11.942 9.68,21.622 21.621,21.622 11.942,0 21.622,-9.68 21.622,-21.622 0,-11.941 -9.68,-21.622 -21.622,-21.622 -11.941,0 -21.621,9.681 -21.621,21.622"
         style="fill:#5db446;fill-opacity:1;fill-rule:nonzero;stroke:none"
         id="path3179"
         inkscape:connector-curvature="0" /><path
         d="m 735.865,369.852 c 0,11.941 9.68,21.621 21.622,21.621 11.941,0 21.622,-9.68 21.622,-21.621 0,-11.942 -9.681,-21.622 -21.622,-21.622 -11.942,0 -21.622,9.68 -21.622,21.622"
         style="fill:#5db446;fill-opacity:1;fill-rule:nonzero;stroke:none"
         id="path3181"
         inkscape:connector-curvature="0" /><path
         d="m 942.311,311.822 c 0,11.942 9.68,21.622 21.621,21.622 11.942,0 21.622,-9.68 21.622,-21.622 0,-11.941 -9.68,-21.622 -21.622,-21.622 -11.941,0 -21.621,9.681 -21.621,21.622"
         style="fill:#5db446;fill-opacity:1;fill-rule:nonzero;stroke:none"
         id="path3183"
         inkscape:connector-curvature="0" /><path
         d="m 1045.53,311.822 c 0,11.942 9.68,21.622 21.62,21.622 11.95,0 21.63,-9.68 21.63,-21.622 0,-11.942 -9.68,-21.622 -21.63,-21.622 -11.94,0 -21.62,9.68 -21.62,21.622"
         style="fill:#5db446;fill-opacity:1;fill-rule:nonzero;stroke:none"
         id="path3185"
         inkscape:connector-curvature="0" /><path
         d="m 1148.76,311.822 c 0,11.942 9.68,21.622 21.62,21.622 11.94,0 21.62,-9.68 21.62,-21.622 0,-11.942 -9.68,-21.622 -21.62,-21.622 -11.94,0 -21.62,9.68 -21.62,21.622"
         style="fill:#5db446;fill-opacity:1;fill-rule:nonzero;stroke:none"
         id="path3187"
         inkscape:connector-curvature="0" /><path
         d="m 839.088,311.822 c 0,11.942 9.68,21.622 21.621,21.622 11.942,0 21.622,-9.68 21.622,-21.622 0,-11.942 -9.68,-21.622 -21.622,-21.622 -11.941,0 -21.621,9.68 -21.621,21.622"
         style="fill:#5db446;fill-opacity:1;fill-rule:nonzero;stroke:none"
         id="path3189"
         inkscape:connector-curvature="0" /><path
         d="m 735.865,311.822 c 0,11.942 9.68,21.622 21.622,21.622 11.941,0 21.622,-9.68 21.622,-21.622 0,-11.942 -9.681,-21.622 -21.622,-21.622 -11.942,0 -21.622,9.68 -21.622,21.622"
         style="fill:#5db446;fill-opacity:1;fill-rule:nonzero;stroke:none"
         id="path3191"
         inkscape:connector-curvature="0" /><path
         d="m 942.311,253.792 c 0,11.942 9.68,21.622 21.621,21.622 11.942,0 21.622,-9.68 21.622,-21.622 0,-11.942 -9.68,-21.622 -21.622,-21.622 -11.941,0 -21.621,9.68 -21.621,21.622"
         style="fill:#5db446;fill-opacity:1;fill-rule:nonzero;stroke:none"
         id="path3193"
         inkscape:connector-curvature="0" /><path
         d="m 1045.53,253.792 c 0,11.942 9.68,21.622 21.62,21.622 11.95,0 21.63,-9.68 21.63,-21.622 0,-11.942 -9.68,-21.622 -21.63,-21.622 -11.94,0 -21.62,9.68 -21.62,21.622"
         style="fill:#5db446;fill-opacity:1;fill-rule:nonzero;stroke:none"
         id="path3195"
         inkscape:connector-curvature="0" /><path
         d="m 1148.76,253.792 c 0,11.941 9.68,21.622 21.62,21.622 11.94,0 21.62,-9.681 21.62,-21.622 0,-11.942 -9.68,-21.622 -21.62,-21.622 -11.94,0 -21.62,9.68 -21.62,21.622"
         style="fill:#5db446;fill-opacity:1;fill-rule:nonzero;stroke:none"
         id="path3197"
         inkscape:connector-curvature="0" /><path
         d="m 839.088,253.792 c 0,11.942 9.68,21.622 21.621,21.622 11.942,0 21.622,-9.68 21.622,-21.622 0,-11.942 -9.68,-21.622 -21.622,-21.622 -11.941,0 -21.621,9.68 -21.621,21.622"
         style="fill:#5db446;fill-opacity:1;fill-rule:nonzero;stroke:none"
         id="path3199"
         inkscape:connector-curvature="0" /><path
         d="m 735.865,253.792 c 0,11.941 9.68,21.622 21.622,21.622 11.941,0 21.622,-9.681 21.622,-21.622 0,-11.942 -9.681,-21.622 -21.622,-21.622 -11.942,0 -21.622,9.68 -21.622,21.622"
         style="fill:#5db446;fill-opacity:1;fill-rule:nonzero;stroke:none"
         id="path3201"
         inkscape:connector-curvature="0" /><path
         d="m 942.311,195.762 c 0,11.942 9.68,21.622 21.621,21.622 11.942,0 21.622,-9.68 21.622,-21.622 0,-11.942 -9.68,-21.622 -21.622,-21.622 -11.941,0 -21.621,9.68 -21.621,21.622"
         style="fill:#5db446;fill-opacity:1;fill-rule:nonzero;stroke:none"
         id="path3203"
         inkscape:connector-curvature="0" /><path
         d="m 1045.53,195.762 c 0,11.942 9.68,21.622 21.62,21.622 11.95,0 21.63,-9.68 21.63,-21.622 0,-11.942 -9.68,-21.622 -21.63,-21.622 -11.94,0 -21.62,9.68 -21.62,21.622"
         style="fill:#5db446;fill-opacity:1;fill-rule:nonzero;stroke:none"
         id="path3205"
         inkscape:connector-curvature="0" /><path
         d="m 1148.76,195.762 c 0,11.942 9.68,21.622 21.62,21.622 11.94,0 21.62,-9.68 21.62,-21.622 0,-11.942 -9.68,-21.622 -21.62,-21.622 -11.94,0 -21.62,9.68 -21.62,21.622"
         style="fill:#5db446;fill-opacity:1;fill-rule:nonzero;stroke:none"
         id="path3207"
         inkscape:connector-curvature="0" /><path
         d="m 839.088,195.762 c 0,11.942 9.68,21.622 21.621,21.622 11.942,0 21.622,-9.68 21.622,-21.622 0,-11.942 -9.68,-21.622 -21.622,-21.622 -11.941,0 -21.621,9.68 -21.621,21.622"
         style="fill:#e3182c;fill-opacity:1;fill-rule:nonzero;stroke:none"
         id="path3209"
         inkscape:connector-curvature="0" /><path
         d="m 735.865,195.762 c 0,11.942 9.68,21.622 21.622,21.622 11.941,0 21.622,-9.68 21.622,-21.622 0,-11.942 -9.681,-21.622 -21.622,-21.622 -11.942,0 -21.622,9.68 -21.622,21.622"
         style="fill:#5db446;fill-opacity:1;fill-rule:nonzero;stroke:none"
         id="path3211"
         inkscape:connector-curvature="0" /><path
         d="m 942.311,137.732 c 0,11.941 9.68,21.622 21.621,21.622 11.942,0 21.622,-9.681 21.622,-21.622 0,-11.942 -9.68,-21.622 -21.622,-21.622 -11.941,0 -21.621,9.68 -21.621,21.622"
         style="fill:#5db446;fill-opacity:1;fill-rule:nonzero;stroke:none"
         id="path3213"
         inkscape:connector-curvature="0" /><path
         d="m 1045.53,137.732 c 0,11.941 9.68,21.622 21.62,21.622 11.95,0 21.63,-9.681 21.63,-21.622 0,-11.942 -9.68,-21.622 -21.63,-21.622 -11.94,0 -21.62,9.68 -21.62,21.622"
         style="fill:#5db446;fill-opacity:1;fill-rule:nonzero;stroke:none"
         id="path3215"
         inkscape:connector-curvature="0" /><path
         d="m 1148.76,137.732 c 0,11.941 9.68,21.622 21.62,21.622 11.94,0 21.62,-9.681 21.62,-21.622 0,-11.942 -9.68,-21.622 -21.62,-21.622 -11.94,0 -21.62,9.68 -21.62,21.622"
         style="fill:#5db446;fill-opacity:1;fill-rule:nonzero;stroke:none"
         id="path3217"
         inkscape:connector-curvature="0" /><path
         d="m 839.088,137.732 c 0,11.941 9.68,21.622 21.621,21.622 11.942,0 21.622,-9.681 21.622,-21.622 0,-11.942 -9.68,-21.622 -21.622,-21.622 -11.941,0 -21.621,9.68 -21.621,21.622"
         style="fill:#5db446;fill-opacity:1;fill-rule:nonzero;stroke:none"
         id="path3219"
         inkscape:connector-curvature="0" /><path
         d="m 735.865,137.732 c 0,11.941 9.68,21.622 21.622,21.622 11.941,0 21.622,-9.681 21.622,-21.622 0,-11.942 -9.681,-21.622 -21.622,-21.622 -11.942,0 -21.622,9.68 -21.622,21.622"
         style="fill:#5db446;fill-opacity:1;fill-rule:nonzero;stroke:none"
         id="path3221"
         inkscape:connector-curvature="0" /><path
         d="m 124.996,187.953 -103.7108,0 0,58.027 93.9028,0 0,21.922 -93.9028,0 0,52.288 101.1618,0 0,21.09 -122.45364063,0 0,-174.417 125.00264063,0 0,21.09"
         style="fill:#ffffff;fill-opacity:1;fill-rule:nonzero;stroke:none"
         id="path3223"
         inkscape:connector-curvature="0" /><path
         d="m 325.837,166.863 0,174.417 -31.014,0 c 0,0 -7.034,-17.632 -7.733,-19.736 -25.049,-75.403 -41.804,-125.798 -41.804,-125.798 l -0.49,0 c 0,0 -16.833,50.395 -42.015,125.798 -0.709,2.122 -7.77,19.736 -7.77,19.736 l -31.261,0 0,-174.417 21.402,0 0,103.148 c 0,5.153 -0.494,25.769 -0.494,41.957 l 0.494,0 47.872,-145.105 23.54,0 47.875,145.348 0.49,0 c 0,-16.431 -0.49,-145.348 -0.49,-145.348 l 21.398,0"
         style="fill:#ffffff;fill-opacity:1;fill-rule:nonzero;stroke:none"
         id="path3225"
         inkscape:connector-curvature="0" /><path
         d="m 388.872,321.756 43.991,0 c 26.485,0 37.371,-9.318 37.371,-25.749 0,-21.58 -14.812,-27.615 -37.618,-27.615 l -43.744,0 0,53.364 z m -21.292,-154.893 74.11,0 c 38.994,0 57.341,22.957 57.341,51.16 0,30.165 -17.857,38.255 -29.385,42.913 19.375,9.075 21.049,25.263 21.049,36.789 0,24.031 -14.426,43.555 -47.288,43.555 l -75.827,0 0,-174.417 z m 21.292,81.325 47.669,0 c 19.372,0 42.03,-4.906 42.03,-29.675 0,-19.619 -13.337,-32.129 -38.105,-32.129 l -51.594,0 0,61.804"
         style="fill:#ffffff;fill-opacity:1;fill-rule:evenodd;stroke:none"
         id="path3227"
         inkscape:connector-curvature="0" /><path
         d="m 556.655,341.28 -22.956,0 0,-174.417 114.68,0 0,21.922 -91.724,0 0,152.495"
         style="fill:#ffffff;fill-opacity:1;fill-rule:nonzero;stroke:none"
         id="path3229"
         inkscape:connector-curvature="0" /></g></g></svg>